# Blender v2.92.0 OBJ File: 'horror_01.blend'
# www.blender.org
mtllib barrel.mtl
o Cube.008_Cube.021
v -0.021597 -0.128198 -0.972225
v -0.021597 3.121312 -0.972225
v 0.844428 -0.128198 -0.472225
v 0.844428 3.121312 -0.472225
v 0.844428 -0.128198 0.527776
v 0.844428 3.121312 0.527776
v -0.021597 -0.128198 1.027776
v -0.021597 3.121312 1.027776
v -0.887623 -0.128198 0.527775
v -0.887623 3.121312 0.527775
v -0.887623 -0.128198 -0.472224
v -0.887623 3.121312 -0.472224
v -0.021597 1.496557 -1.175838
v 1.020762 1.496557 -0.574031
v 1.020762 1.496557 0.629582
v -0.021597 1.496557 1.231389
v -1.063957 1.496557 0.629582
v -1.063957 1.496557 -0.574031
v 0.674915 3.121312 -0.374356
v -0.021597 3.121312 -0.776488
v 0.674915 3.121312 0.429907
v -0.021597 3.121312 0.832039
v -0.718110 3.121312 0.429907
v -0.718110 3.121312 -0.374356
v -0.021597 3.021555 -0.776488
v -0.021597 3.021555 0.027775
v 0.674915 3.021555 -0.374356
v 0.674915 3.021555 0.429907
v -0.021597 3.021555 0.832039
v -0.718110 3.021555 0.429907
v -0.718110 3.021555 -0.374356
vt 0.417163 0.346512
vt 0.250000 0.443023
vt 0.250000 0.443023
vt 0.417163 0.346512
vt 1.000000 0.750000
vt 1.000000 1.000000
vt 0.833333 1.000000
vt 0.833333 0.750000
vt 0.250000 0.056977
vt 0.417163 0.153488
vt 0.417163 0.153488
vt 0.250000 0.056977
vt 0.666667 1.000000
vt 0.666667 0.750000
vt 0.082837 0.346512
vt 0.082837 0.153488
vt 0.082837 0.153488
vt 0.082837 0.346512
vt 0.500000 1.000000
vt 0.500000 0.750000
vt 0.333333 1.000000
vt 0.333333 0.750000
vt 0.166667 1.000000
vt 0.166667 0.750000
vt -0.000000 1.000000
vt -0.000000 0.750000
vt 0.166667 0.500000
vt -0.000000 0.500000
vt 0.333333 0.500000
vt 0.500000 0.500000
vt 0.666667 0.500000
vt 0.833333 0.500000
vt 1.000000 0.500000
vt 0.457846 0.370000
vt 0.250000 0.490000
vt 0.457846 0.130000
vt 0.250000 0.010000
vt 0.042154 0.130000
vt 0.042154 0.370000
vt 0.250000 0.250000
vn -0.5000 0.0000 0.8660
vn 0.4971 0.1079 -0.8610
vn -0.5000 0.0000 -0.8660
vn 0.9942 0.1079 0.0000
vn 1.0000 0.0000 0.0000
vn 0.4971 0.1079 0.8610
vn -1.0000 0.0000 -0.0000
vn -0.4971 0.1079 0.8610
vn 0.5000 0.0000 -0.8660
vn -0.9942 0.1079 0.0000
vn 0.5000 0.0000 0.8660
vn -0.4971 0.1079 -0.8610
vn -0.4971 -0.1079 -0.8610
vn -0.9942 -0.1079 0.0000
vn -0.4971 -0.1079 0.8610
vn 0.4971 -0.1079 0.8610
vn 0.9942 -0.1079 0.0000
vn 0.4971 -0.1079 -0.8610
vn 0.0000 1.0000 -0.0000
usemtl Material.003
s off
f 19/1/1 20/2/1 25/3/1 27/4/1
f 13/5/2 2/6/2 4/7/2 14/8/2
f 22/9/3 21/10/3 28/11/3 29/12/3
f 14/8/4 4/7/4 6/13/4 15/14/4
f 24/15/5 23/16/5 30/17/5 31/18/5
f 15/14/6 6/13/6 8/19/6 16/20/6
f 21/10/7 19/1/7 27/4/7 28/11/7
f 16/20/8 8/19/8 10/21/8 17/22/8
f 23/16/9 22/9/9 29/12/9 30/17/9
f 17/22/10 10/21/10 12/23/10 18/24/10
f 20/2/11 24/15/11 31/18/11 25/3/11
f 18/24/12 12/23/12 2/25/12 13/26/12
f 11/27/13 18/24/13 13/26/13 1/28/13
f 9/29/14 17/22/14 18/24/14 11/27/14
f 7/30/15 16/20/15 17/22/15 9/29/15
f 5/31/16 15/14/16 16/20/16 7/30/16
f 3/32/17 14/8/17 15/14/17 5/31/17
f 1/33/18 13/5/18 14/8/18 3/32/18
f 20/2/19 19/1/19 4/34/19 2/35/19
f 19/1/19 21/10/19 6/36/19 4/34/19
f 21/10/19 22/9/19 8/37/19 6/36/19
f 22/9/19 23/16/19 10/38/19 8/37/19
f 23/16/19 24/15/19 12/39/19 10/38/19
f 24/15/19 20/2/19 2/35/19 12/39/19
f 26/40/19 27/4/19 25/3/19
f 26/40/19 28/11/19 27/4/19
f 26/40/19 29/12/19 28/11/19
f 26/40/19 30/17/19 29/12/19
f 26/40/19 31/18/19 30/17/19
f 26/40/19 25/3/19 31/18/19
