# Blender v2.92.0 OBJ File: 'horror_01.blend'
# www.blender.org
mtllib cart.mtl
o Cube.007_Cube.020
v -1.967501 0.561472 2.240180
v -1.622235 0.815472 2.072567
v -1.967501 1.524671 -2.604635
v -1.622235 1.695243 -2.352614
v -1.967501 0.773759 2.282385
v -1.967501 1.736957 -2.562431
v -1.967501 2.076282 2.541339
v -1.967501 3.039480 -2.303476
v -1.622235 2.117996 2.331522
v -1.622235 2.997766 -2.093659
v -1.364194 1.524671 -2.604635
v -1.364194 0.773759 2.282385
v -1.364194 1.736957 -2.562431
v -1.364194 0.561472 2.240180
v -1.120898 0.815472 2.072567
v -1.120898 1.695243 -2.352614
v -1.364194 3.039480 -2.303476
v -1.120898 2.997766 -2.093659
v -1.009834 1.736957 -2.562431
v -1.009834 0.561472 2.240180
v -0.826431 1.695243 -2.352614
v -1.009834 3.039480 -2.303476
v -0.826431 2.997766 -2.093659
v -1.009834 1.524671 -2.604635
v -1.009834 0.773759 2.282385
v -0.826431 0.815472 2.072567
v -1.009834 0.477370 3.773196
v -1.364194 0.477370 3.773196
v -1.364194 0.265084 3.730991
v -1.009834 0.265084 3.730991
v -1.009834 0.406295 4.130702
v -1.364194 0.406295 4.130702
v -1.364194 0.194008 4.088497
v -1.009834 0.194008 4.088497
v -1.009834 0.163289 5.353004
v -1.364194 0.163289 5.353004
v -1.364194 -0.048998 5.310799
v -1.009834 -0.048998 5.310799
v -2.344627 0.954492 -1.079950
v -1.976707 0.954492 -1.079950
v -2.344627 1.280985 -2.105465
v -2.344627 0.627998 -2.105465
v -2.344627 0.954492 -1.916964
v -1.976707 0.627998 -2.105465
v -1.976707 1.280985 -2.105465
v -1.976707 0.954492 -1.916964
v -2.344627 0.229617 -1.875460
v -2.344627 -0.096877 -1.309956
v -2.344627 0.229617 -1.498457
v -1.976707 -0.096877 -1.309956
v -1.976707 0.229616 -1.875460
v -1.976707 0.229616 -1.498457
v -2.344627 -0.096877 -0.849945
v -2.344627 0.229617 -0.284441
v -2.344627 0.229617 -0.661443
v -1.976707 0.229616 -0.284441
v -1.976707 -0.096877 -0.849945
v -1.976707 0.229616 -0.661443
v -2.344627 0.627998 -0.054436
v -2.344627 1.280985 -0.054436
v -2.344627 0.954492 -0.242937
v -1.976707 1.280985 -0.054436
v -1.976707 0.627998 -0.054436
v -1.976707 0.954492 -0.242937
v -2.344627 1.679367 -0.284441
v -2.344627 2.005860 -0.849945
v -2.344627 1.679367 -0.661444
v -1.976707 2.005860 -0.849945
v -1.976707 1.679367 -0.284441
v -1.976707 1.679367 -0.661444
v -2.344627 2.005860 -1.309956
v -2.344627 1.679367 -1.875459
v -2.344627 1.679367 -1.498457
v -1.976707 1.679367 -1.875459
v -1.976707 2.005860 -1.309956
v -1.976707 1.679367 -1.498457
v -2.432558 0.951038 -1.076775
v -2.432558 0.951038 -1.292952
v -2.432558 0.763824 -1.184864
v -2.432558 0.763824 -0.968687
v -2.432558 0.951038 -0.860599
v -2.432558 1.138253 -0.968687
v -2.432558 1.138253 -1.184864
v 2.118058 0.561472 2.240180
v 1.772792 0.815472 2.072567
v 2.118058 1.524671 -2.604635
v 1.772792 1.695243 -2.352614
v 0.075278 1.524671 -2.604635
v 0.075278 1.695243 -2.352614
v 0.075278 0.561472 2.240180
v 0.075278 0.815472 2.072567
v 2.118058 0.773759 2.282385
v 2.118058 1.736957 -2.562431
v 0.075278 0.773759 2.282385
v 0.075278 1.736957 -2.562431
v 2.118058 2.076282 2.541339
v 2.118058 3.039480 -2.303476
v 0.075278 3.039480 -2.303476
v 1.772792 2.117996 2.331522
v 1.772792 2.997766 -2.093659
v 0.075278 2.997766 -2.093659
v 1.514751 1.524671 -2.604635
v 1.514751 0.773759 2.282385
v 1.514751 1.736957 -2.562431
v 1.514751 0.561472 2.240180
v 1.271454 0.815472 2.072567
v 1.271454 1.695243 -2.352614
v 1.514751 3.039480 -2.303476
v 1.271454 2.997766 -2.093659
v 1.160391 1.736957 -2.562431
v 1.160391 0.561472 2.240180
v 0.976987 1.695243 -2.352614
v 1.160391 3.039480 -2.303476
v 0.976987 2.997766 -2.093659
v 1.160391 1.524671 -2.604635
v 1.160391 0.773759 2.282385
v 0.976987 0.815472 2.072567
v 1.160391 0.477370 3.773196
v 1.514751 0.477370 3.773196
v 1.514751 0.265084 3.730991
v 1.160391 0.265084 3.730991
v 1.160391 0.406295 4.130702
v 1.514751 0.406295 4.130702
v 1.514751 0.194008 4.088497
v 1.160391 0.194008 4.088497
v 1.160391 0.163289 5.353004
v 1.514751 0.163289 5.353004
v 1.514751 -0.048998 5.310799
v 1.160391 -0.048998 5.310799
v 0.075278 0.477370 3.773196
v 0.075278 0.265084 3.730991
v 0.075278 0.406295 4.130702
v 0.075278 0.194008 4.088497
v 2.495183 0.954492 -1.079950
v 2.127263 0.954492 -1.079950
v 2.495183 1.280985 -2.105465
v 2.495183 0.627998 -2.105465
v 2.495183 0.954492 -1.916964
v 2.127263 0.627998 -2.105465
v 2.127263 1.280985 -2.105465
v 2.127263 0.954492 -1.916964
v 2.495183 0.229617 -1.875460
v 2.495183 -0.096877 -1.309956
v 2.495183 0.229617 -1.498457
v 2.127263 -0.096877 -1.309956
v 2.127263 0.229616 -1.875460
v 2.127263 0.229616 -1.498457
v 2.495183 -0.096877 -0.849945
v 2.495183 0.229617 -0.284441
v 2.495183 0.229617 -0.661443
v 2.127263 0.229616 -0.284441
v 2.127263 -0.096877 -0.849945
v 2.127263 0.229616 -0.661443
v 2.495183 0.627998 -0.054436
v 2.495183 1.280985 -0.054436
v 2.495183 0.954492 -0.242937
v 2.127263 1.280985 -0.054436
v 2.127263 0.627998 -0.054436
v 2.127263 0.954492 -0.242937
v 2.495183 1.679367 -0.284441
v 2.495183 2.005860 -0.849945
v 2.495183 1.679367 -0.661444
v 2.127263 2.005860 -0.849945
v 2.127263 1.679367 -0.284441
v 2.127263 1.679367 -0.661444
v 2.495183 2.005860 -1.309956
v 2.495183 1.679367 -1.875459
v 2.495183 1.679367 -1.498457
v 2.127263 1.679367 -1.875459
v 2.127263 2.005860 -1.309956
v 2.127263 1.679367 -1.498457
v 2.583115 0.951038 -1.076775
v 0.075278 0.951038 -1.076775
v 2.583115 0.951038 -1.292952
v 0.075278 0.951038 -1.292952
v 2.583115 0.763824 -1.184864
v 0.075278 0.763824 -1.184864
v 2.583115 0.763824 -0.968687
v 0.075278 0.763824 -0.968687
v 2.583115 0.951038 -0.860599
v 0.075278 0.951038 -0.860599
v 2.583115 1.138253 -0.968687
v 0.075278 1.138252 -0.968687
v 2.583115 1.138253 -1.184864
v 0.075278 1.138252 -1.184864
vt 0.832438 0.535912
vt 0.808956 0.535912
vt 0.808956 0.000000
vt 0.832438 0.000000
vt 0.412058 0.916943
vt 0.388917 0.916943
vt 0.388917 0.851489
vt 0.412058 0.851489
vt 0.091850 0.851680
vt 0.037459 0.851680
vt 0.037459 0.362577
vt 0.091850 0.362577
vt 0.325525 0.000000
vt 0.443251 0.000000
vt 0.443251 0.414266
vt 0.325525 0.414266
vt 0.388917 0.794551
vt 0.365472 0.794551
vt 0.365472 0.676825
vt 0.388917 0.676825
vt 0.365472 0.832997
vt 0.365472 0.898451
vt 0.221626 0.898451
vt 0.221626 0.832997
vt 0.000000 0.339387
vt 0.065454 0.339387
vt 0.627418 0.512293
vt 0.627418 0.023190
vt 0.664877 0.000000
vt 0.664877 0.535484
vt 0.541080 0.023190
vt 0.443251 0.023190
vt 0.443251 0.000000
vt 0.560978 0.000000
vt 0.664877 0.535912
vt 0.585238 0.751423
vt 0.622697 0.755364
vt 0.622697 0.897351
vt 0.585238 0.893410
vt 0.443251 0.849252
vt 0.443251 0.751423
vt 0.585238 0.751423
vt 0.585238 0.849252
vt 0.976518 0.000000
vt 0.976518 0.489494
vt 0.832439 0.489494
vt 0.832439 0.000000
vt 0.443251 0.935590
vt 0.443251 0.881199
vt 0.585238 0.881199
vt 0.585238 0.935590
vt 0.573027 0.023190
vt 0.599423 0.000000
vt 0.123797 0.362577
vt 0.103899 0.339387
vt 0.221626 0.794551
vt 0.388917 0.898451
vt 0.388917 0.832997
vt 0.221626 0.000000
vt 0.287080 0.000000
vt 0.287080 0.414266
vt 0.221626 0.414266
vt 0.123797 0.851680
vt 0.325525 0.541740
vt 0.287080 0.541740
vt 0.852935 0.869578
vt 0.829794 0.869578
vt 0.829794 0.751851
vt 0.852935 0.751851
vt 0.221626 0.851680
vt 0.221626 0.362577
vt 0.221626 0.676825
vt 0.221626 0.339387
vt 0.829794 0.869578
vt 0.806349 0.869578
vt 0.806349 0.751851
vt 0.829794 0.751851
vt 0.904299 0.875570
vt 0.880817 0.875570
vt 0.880817 0.710663
vt 0.904299 0.710663
vt 0.759658 0.916759
vt 0.736176 0.916759
vt 0.736176 0.751852
vt 0.759658 0.751852
vt 0.065454 0.174612
vt 0.103899 0.174612
vt 0.904299 0.671118
vt 0.880817 0.671118
vt 0.880817 0.535912
vt 0.904299 0.535912
vt 0.325525 0.572310
vt 0.287080 0.572310
vt 0.065454 0.135098
vt 0.103899 0.135098
vt 0.879062 0.527939
vt 0.855921 0.527939
vt 0.855921 0.489494
vt 0.879062 0.489494
vt 0.325525 0.676825
vt 0.287080 0.676825
vt 0.065454 0.000000
vt 0.103899 0.000000
vt 0.806349 0.887057
vt 0.782867 0.887057
vt 0.782867 0.751852
vt 0.806349 0.751852
vt 0.221626 0.135098
vt 0.221626 0.174612
vt 0.443251 0.541740
vt 0.443251 0.572310
vt 0.852935 0.751851
vt 0.876076 0.751851
vt 0.876076 0.869578
vt 0.852935 0.869578
vt 0.948243 0.500000
vt 0.948243 1.000000
vt 0.885090 1.000000
vt 0.885090 0.500000
vt 0.750000 0.250000
vt 0.893301 0.332735
vt 0.957846 0.295470
vt 0.957846 0.204530
vt 0.893301 0.167265
vt 0.114910 0.500000
vt 0.114910 1.000000
vt 0.051757 1.000000
vt 0.051757 0.500000
vt 0.781576 0.500000
vt 0.781576 1.000000
vt 0.718424 1.000000
vt 0.718424 0.500000
vt 0.893301 0.092735
vt 0.814545 0.047265
vt 0.750000 0.084530
vt 0.250000 0.250000
vt 0.393301 0.167265
vt 0.457846 0.204530
vt 0.457846 0.295470
vt 0.393301 0.332735
vt 0.614910 0.500000
vt 0.614910 1.000000
vt 0.551757 1.000000
vt 0.551757 0.500000
vt 0.685455 0.047265
vt 0.606699 0.092735
vt 0.606699 0.167265
vt 0.250000 0.084530
vt 0.314545 0.047265
vt 0.393301 0.092735
vt 0.448243 0.500000
vt 0.448243 1.000000
vt 0.385090 1.000000
vt 0.385090 0.500000
vt 0.542154 0.204530
vt 0.542154 0.295470
vt 0.606699 0.332735
vt 0.106699 0.167265
vt 0.106699 0.092735
vt 0.185455 0.047265
vt 0.281576 0.500000
vt 0.281576 1.000000
vt 0.218424 1.000000
vt 0.218424 0.500000
vt 0.106699 0.332735
vt 0.042154 0.295470
vt 0.042154 0.204530
vt 0.750000 0.415470
vt 0.814545 0.452735
vt 0.893301 0.407265
vt 0.393301 0.407265
vt 0.314545 0.452735
vt 0.250000 0.415470
vt 0.185455 0.452735
vt 0.106699 0.407265
vt 0.685455 0.452735
vt 0.250000 0.452735
vt 0.425574 0.351368
vt 0.425574 0.148632
vt 0.750000 0.047265
vt 0.574426 0.148633
vt 0.574426 0.351367
vt 1.000000 0.500000
vt 1.000000 1.000000
vt 0.606699 0.407265
vt 0.750000 0.250000
vt 0.750000 0.490000
vt 0.957846 0.370000
vt 1.000000 0.500000
vt 1.000000 1.000000
vt 0.833333 1.000000
vt 0.833333 0.500000
vt 0.957846 0.130000
vt 0.666667 1.000000
vt 0.666667 0.500000
vt 0.750000 0.010000
vt 0.500000 1.000000
vt 0.500000 0.500000
vt 0.542154 0.130000
vt 0.333333 1.000000
vt 0.333333 0.500000
vt 0.542154 0.370000
vt 0.166667 1.000000
vt 0.166667 0.500000
vt -0.000000 1.000000
vt -0.000000 0.500000
vt 0.832438 0.535912
vt 0.832438 0.000000
vt 0.808956 0.000000
vt 0.808956 0.535912
vt 0.412058 0.916943
vt 0.412058 0.851489
vt 0.388917 0.851489
vt 0.388917 0.916943
vt 0.091850 0.851680
vt 0.091850 0.362577
vt 0.037459 0.362577
vt 0.037459 0.851680
vt 0.325525 0.000000
vt 0.325525 0.414266
vt 0.388917 0.794551
vt 0.365472 0.794551
vt 0.976518 0.000000
vt 0.976518 0.535912
vt 1.000000 0.535912
vt 1.000000 0.000000
vt 0.365472 0.832997
vt 0.221626 0.832997
vt 0.221626 0.898451
vt 0.365472 0.898451
vt 0.065454 0.339387
vt 0.000000 0.339387
vt 0.759658 0.751851
vt 0.759658 0.895931
vt 0.782867 0.895931
vt 0.782867 0.751851
vt 1.000000 0.023209
vt 1.000000 0.000000
vt 1.000000 0.535912
vt 1.000000 0.512703
vt 0.627418 0.512293
vt 0.664877 0.535484
vt 0.664877 0.000000
vt 0.627418 0.023190
vt 0.541080 0.023190
vt 0.560978 0.000000
vt 0.664877 0.535912
vt 0.585238 0.751423
vt 0.585238 0.893410
vt 0.622697 0.897351
vt 0.622697 0.755364
vt 0.443251 0.849252
vt 0.585238 0.849252
vt 0.976518 0.000000
vt 0.832439 0.000000
vt 0.832439 0.489494
vt 0.976518 0.489494
vt 0.443251 0.935590
vt 0.585238 0.935590
vt 0.585238 0.881199
vt 0.443251 0.881199
vt 0.599423 0.000000
vt 0.573027 0.023190
vt 0.123797 0.362577
vt 0.103899 0.339387
vt 0.221626 0.794551
vt 0.388917 0.898451
vt 0.388917 0.832997
vt 0.221626 0.000000
vt 0.221626 0.414266
vt 0.287080 0.414266
vt 0.287080 0.000000
vt 0.123797 0.851680
vt 0.287080 0.541740
vt 0.325525 0.541740
vt 0.852935 0.751851
vt 0.829794 0.751851
vt 0.829794 0.869578
vt 0.806349 0.869578
vt 0.904299 0.875570
vt 0.904299 0.710663
vt 0.880817 0.710663
vt 0.880817 0.875570
vt 0.759658 0.916759
vt 0.759658 0.751852
vt 0.736176 0.751852
vt 0.736176 0.916759
vt 0.103899 0.174612
vt 0.065454 0.174612
vt 0.904299 0.671118
vt 0.904299 0.535912
vt 0.880817 0.535912
vt 0.880817 0.671118
vt 0.287080 0.572310
vt 0.325525 0.572310
vt 0.103899 0.135098
vt 0.065454 0.135098
vt 0.879062 0.527939
vt 0.879062 0.489494
vt 0.855921 0.489494
vt 0.855921 0.527939
vt 0.287080 0.676825
vt 0.325525 0.676825
vt 0.103899 0.000000
vt 0.065454 0.000000
vt 0.806349 0.887057
vt 0.806349 0.751852
vt 0.782867 0.751852
vt 0.782867 0.887057
vt 0.855921 0.529039
vt 0.855921 0.489494
vt 0.832439 0.489494
vt 0.832439 0.529039
vt 0.852935 0.751851
vt 0.876076 0.751851
vt 0.948243 0.500000
vt 0.885090 0.500000
vt 0.885090 1.000000
vt 0.948243 1.000000
vt 0.750000 0.250000
vt 0.893301 0.167265
vt 0.957846 0.204530
vt 0.957846 0.295470
vt 0.893301 0.332735
vt 0.114910 0.500000
vt 0.051757 0.500000
vt 0.051757 1.000000
vt 0.114910 1.000000
vt 0.781576 0.500000
vt 0.718424 0.500000
vt 0.718424 1.000000
vt 0.781576 1.000000
vt 0.750000 0.084530
vt 0.814545 0.047265
vt 0.893301 0.092735
vt 0.250000 0.250000
vt 0.393301 0.332735
vt 0.457846 0.295470
vt 0.457846 0.204530
vt 0.393301 0.167265
vt 0.614910 0.500000
vt 0.551757 0.500000
vt 0.551757 1.000000
vt 0.614910 1.000000
vt 0.606699 0.167265
vt 0.606699 0.092735
vt 0.685455 0.047265
vt 0.393301 0.092735
vt 0.314545 0.047265
vt 0.250000 0.084530
vt 0.448243 0.500000
vt 0.385090 0.500000
vt 0.385090 1.000000
vt 0.448243 1.000000
vt 0.606699 0.332735
vt 0.542154 0.295470
vt 0.542154 0.204530
vt 0.185455 0.047265
vt 0.106699 0.092735
vt 0.106699 0.167265
vt 0.281576 0.500000
vt 0.218424 0.500000
vt 0.218424 1.000000
vt 0.281576 1.000000
vt 0.042154 0.204530
vt 0.042154 0.295470
vt 0.106699 0.332735
vt 0.893301 0.407265
vt 0.814545 0.452735
vt 0.750000 0.415470
vt 0.250000 0.415470
vt 0.314545 0.452735
vt 0.393301 0.407265
vt 0.106699 0.407265
vt 0.185455 0.452735
vt 0.685455 0.452735
vt 0.250000 0.452735
vt 0.425574 0.351368
vt 0.425574 0.148632
vt 0.750000 0.047265
vt 0.574426 0.148633
vt 0.574426 0.351367
vt 1.000000 0.500000
vt 1.000000 1.000000
vt 0.606699 0.407265
vt 0.750000 0.250000
vt 0.957846 0.370000
vt 0.750000 0.490000
vt 0.250000 0.250000
vt 0.250000 0.490000
vt 0.457846 0.370000
vt 1.000000 0.500000
vt 0.833333 0.500000
vt 0.957846 0.130000
vt 0.457846 0.130000
vt 0.666667 0.500000
vt 0.750000 0.010000
vt 0.250000 0.010000
vt 0.500000 0.500000
vt 0.542154 0.130000
vt 0.042154 0.130000
vt 0.333333 0.500000
vt 0.542154 0.370000
vt 0.042154 0.370000
vt 0.166667 0.500000
vt -0.000000 0.500000
vn -1.0000 -0.0000 0.0000
vn 0.0000 -0.1950 0.9808
vn 0.0000 0.9808 0.1950
vn 0.0000 -0.9808 -0.1950
vn 0.0000 0.1950 -0.9808
vn 0.5267 -0.1658 0.8337
vn 1.0000 0.0000 0.0000
vn -0.0000 -0.5000 -0.8660
vn 0.0000 0.5000 -0.8660
vn -0.0000 -1.0000 0.0000
vn -0.0000 -0.5000 0.8660
vn 0.0000 0.5000 0.8660
vn 0.0000 1.0000 0.0000
vn -0.0000 0.0000 -1.0000
vn -0.0000 -0.8660 -0.5000
vn -0.0000 -0.8660 0.5000
vn -0.0000 0.0000 1.0000
vn 0.0000 0.8660 0.5000
vn 0.0000 0.8660 -0.5000
vn -0.8944 0.4472 0.0000
vn -0.5267 -0.1658 0.8337
usemtl Material.003
s off
f 1/1/1 5/2/1 6/3/1 3/4/1
f 14/5/2 12/6/2 5/7/2 1/8/2
f 16/9/3 4/10/3 2/11/3 15/12/3
f 24/13/4 88/14/4 90/15/4 20/16/4
f 24/17/5 19/18/5 95/19/5 88/20/5
f 13/21/5 6/22/5 8/23/5 17/24/5
f 15/12/3 2/11/3 5/25/3 12/26/3
f 9/27/3 10/28/3 8/29/3 7/30/3
f 23/31/3 101/32/3 98/33/3 22/34/3
f 6/3/1 5/2/1 7/35/1 8/29/1
f 5/36/6 2/37/6 9/38/6 7/39/6
f 21/40/2 89/41/2 101/42/2 23/43/2
f 2/44/7 4/45/7 10/46/7 9/47/7
f 4/48/2 16/49/2 18/50/2 10/51/2
f 10/28/3 18/52/3 17/53/3 8/29/3
f 26/54/3 15/12/3 12/26/3 25/55/3
f 19/18/5 13/21/5 17/24/5 22/56/5
f 3/57/5 6/22/5 13/21/5 11/58/5
f 3/59/4 11/60/4 14/61/4 1/62/4
f 21/63/3 16/9/3 15/12/3 26/54/3
f 14/61/4 20/16/4 30/64/4 29/65/4
f 90/66/2 94/67/2 25/68/2 20/69/2
f 89/70/3 21/63/3 26/54/3 91/71/3
f 95/19/5 19/18/5 22/56/5 98/72/5
f 91/71/3 26/54/3 25/55/3 94/73/3
f 16/49/2 21/40/2 23/43/2 18/50/2
f 18/52/3 23/31/3 22/34/3 17/53/3
f 11/58/5 13/21/5 19/18/5 24/17/5
f 11/60/4 24/13/4 20/16/4 14/61/4
f 30/74/5 27/75/5 130/76/5 131/77/5
f 12/78/1 14/79/1 29/80/1 28/81/1
f 20/82/7 25/83/7 27/84/7 30/85/7
f 25/55/3 12/26/3 28/86/3 27/87/3
f 32/88/1 33/89/1 37/90/1 36/91/1
f 28/81/1 29/80/1 33/89/1 32/88/1
f 29/65/4 30/64/4 34/92/4 33/93/4
f 27/87/3 28/86/3 32/94/3 31/95/3
f 38/96/2 35/97/2 36/98/2 37/99/2
f 33/93/4 34/92/4 38/100/4 37/101/4
f 31/95/3 32/94/3 36/102/3 35/103/3
f 34/104/7 31/105/7 35/106/7 38/107/7
f 27/87/3 31/95/3 132/108/3 130/109/3
f 34/92/4 30/64/4 131/110/4 133/111/4
f 31/112/2 34/113/2 133/114/2 132/115/2
f 42/116/8 44/117/8 51/118/8 47/119/8
f 39/120/1 49/121/1 48/122/1 53/123/1 55/124/1
f 72/125/9 74/126/9 45/127/9 41/128/9
f 48/129/10 50/130/10 57/131/10 53/132/10
f 39/120/1 55/124/1 54/133/1 59/134/1 61/135/1
f 40/136/7 58/137/7 57/138/7 50/139/7 52/140/7
f 54/141/11 56/142/11 63/143/11 59/144/11
f 39/120/1 61/135/1 60/145/1 65/146/1 67/147/1
f 40/136/7 64/148/7 63/149/7 56/150/7 58/137/7
f 60/151/12 62/152/12 69/153/12 65/154/12
f 39/120/1 67/147/1 66/155/1 71/156/1 73/157/1
f 40/136/7 70/158/7 69/159/7 62/160/7 64/148/7
f 66/161/13 68/162/13 75/163/13 71/164/13
f 40/136/7 76/165/7 75/166/7 68/167/7 70/158/7
f 39/120/1 43/168/1 42/169/1 47/170/1 49/121/1
f 40/136/7 52/140/7 51/171/7 44/172/7 46/173/7
f 40/136/7 46/173/7 45/174/7 74/175/7 76/165/7
f 41/176/1 42/169/1 43/168/1
f 44/172/7 45/177/7 46/173/7
f 47/170/1 48/122/1 49/121/1
f 50/139/7 51/178/7 52/140/7
f 53/123/1 54/133/1 55/124/1
f 56/150/7 57/179/7 58/137/7
f 59/134/1 60/180/1 61/135/1
f 62/160/7 63/149/7 64/148/7
f 65/146/1 66/181/1 67/147/1
f 68/167/7 69/159/7 70/158/7
f 71/156/1 72/182/1 73/157/1
f 74/175/7 75/166/7 76/165/7
f 41/183/14 45/184/14 44/117/14 42/116/14
f 50/130/15 48/129/15 47/119/15 51/118/15
f 56/142/16 54/141/16 53/132/16 57/131/16
f 62/152/17 60/151/17 59/144/17 63/143/17
f 68/162/18 66/161/18 65/154/18 69/153/18
f 74/126/19 72/125/19 71/164/19 75/163/19
f 39/120/1 73/157/1 72/185/1 41/176/1 43/168/1
f 77/186/1 78/187/1 79/188/1
f 78/189/8 175/190/8 177/191/8 79/192/8
f 77/186/1 79/188/1 80/193/1
f 79/192/10 177/191/10 179/194/10 80/195/10
f 77/186/1 80/193/1 81/196/1
f 80/195/11 179/194/11 181/197/11 81/198/11
f 77/186/1 81/196/1 82/199/1
f 81/198/12 181/197/12 183/200/12 82/201/12
f 77/186/1 82/199/1 83/202/1
f 82/201/13 183/200/13 185/203/13 83/204/13
f 77/186/1 83/202/1 78/187/1
f 83/204/9 185/203/9 175/205/9 78/206/9
f 84/207/7 86/208/7 93/209/7 92/210/7
f 105/211/2 84/212/2 92/213/2 103/214/2
f 107/215/3 106/216/3 85/217/3 87/218/3
f 115/219/4 111/220/4 90/15/4 88/14/4
f 115/221/5 88/20/5 95/19/5 110/222/5
f 94/223/1 95/224/1 88/225/1 90/226/1
f 104/227/5 108/228/5 97/229/5 93/230/5
f 106/216/3 103/231/3 92/232/3 85/217/3
f 89/233/1 101/234/1 98/235/1 95/236/1
f 89/237/20 95/238/20 94/239/20 91/240/20
f 99/241/3 96/242/3 97/243/3 100/244/3
f 114/245/3 113/246/3 98/33/3 101/32/3
f 93/209/7 97/243/7 96/247/7 92/210/7
f 92/248/21 96/249/21 99/250/21 85/251/21
f 112/252/2 114/253/2 101/42/2 89/41/2
f 85/254/1 99/255/1 100/256/1 87/257/1
f 87/258/2 100/259/2 109/260/2 107/261/2
f 100/244/3 97/243/3 108/262/3 109/263/3
f 117/264/3 116/265/3 103/231/3 106/216/3
f 110/222/5 113/266/5 108/228/5 104/227/5
f 86/267/5 102/268/5 104/227/5 93/230/5
f 86/269/4 84/270/4 105/271/4 102/272/4
f 112/273/3 117/264/3 106/216/3 107/215/3
f 105/271/4 120/274/4 121/275/4 111/220/4
f 90/66/2 111/276/2 116/277/2 94/67/2
f 89/70/3 91/71/3 117/264/3 112/273/3
f 95/19/5 98/72/5 113/266/5 110/222/5
f 91/71/3 94/73/3 116/265/3 117/264/3
f 107/261/2 109/260/2 114/253/2 112/252/2
f 109/263/3 108/262/3 113/246/3 114/245/3
f 102/268/5 115/221/5 110/222/5 104/227/5
f 102/272/4 105/271/4 111/220/4 115/219/4
f 121/278/5 131/77/5 130/76/5 118/279/5
f 103/280/7 119/281/7 120/282/7 105/283/7
f 111/284/1 121/285/1 118/286/1 116/287/1
f 116/265/3 118/288/3 119/289/3 103/231/3
f 123/290/7 127/291/7 128/292/7 124/293/7
f 119/281/7 123/290/7 124/293/7 120/282/7
f 120/274/4 124/294/4 125/295/4 121/275/4
f 118/288/3 122/296/3 123/297/3 119/289/3
f 129/298/2 128/299/2 127/300/2 126/301/2
f 124/294/4 128/302/4 129/303/4 125/295/4
f 122/296/3 126/304/3 127/305/3 123/297/3
f 125/306/1 129/307/1 126/308/1 122/309/1
f 131/310/1 133/311/1 132/312/1 130/313/1
f 118/288/3 130/109/3 132/108/3 122/296/3
f 125/295/4 133/111/4 131/110/4 121/275/4
f 122/314/2 132/115/2 133/114/2 125/315/2
f 137/316/8 142/317/8 146/318/8 139/319/8
f 134/320/7 150/321/7 148/322/7 143/323/7 144/324/7
f 167/325/9 136/326/9 140/327/9 169/328/9
f 143/329/10 148/330/10 152/331/10 145/332/10
f 134/320/7 156/333/7 154/334/7 149/335/7 150/321/7
f 135/336/1 147/337/1 145/338/1 152/339/1 153/340/1
f 149/341/11 154/342/11 158/343/11 151/344/11
f 134/320/7 162/345/7 160/346/7 155/347/7 156/333/7
f 135/336/1 153/340/1 151/348/1 158/349/1 159/350/1
f 155/351/12 160/352/12 164/353/12 157/354/12
f 134/320/7 168/355/7 166/356/7 161/357/7 162/345/7
f 135/336/1 159/350/1 157/358/1 164/359/1 165/360/1
f 161/361/13 166/362/13 170/363/13 163/364/13
f 135/336/1 165/360/1 163/365/1 170/366/1 171/367/1
f 134/320/7 144/324/7 142/368/7 137/369/7 138/370/7
f 135/336/1 141/371/1 139/372/1 146/373/1 147/337/1
f 135/336/1 171/367/1 169/374/1 140/375/1 141/371/1
f 136/376/7 138/370/7 137/369/7
f 139/372/1 141/371/1 140/377/1
f 142/368/7 144/324/7 143/323/7
f 145/338/1 147/337/1 146/378/1
f 148/322/7 150/321/7 149/335/7
f 151/348/1 153/340/1 152/379/1
f 154/334/7 156/333/7 155/380/7
f 157/358/1 159/350/1 158/349/1
f 160/346/7 162/345/7 161/381/7
f 163/365/1 165/360/1 164/359/1
f 166/356/7 168/355/7 167/382/7
f 169/374/1 171/367/1 170/366/1
f 136/383/14 137/316/14 139/319/14 140/384/14
f 145/332/15 146/318/15 142/317/15 143/329/15
f 151/344/16 152/331/16 148/330/16 149/341/16
f 157/354/17 158/343/17 154/342/17 155/351/17
f 163/364/18 164/353/18 160/352/18 161/361/18
f 169/328/19 170/363/19 166/362/19 167/325/19
f 134/320/7 138/370/7 136/376/7 167/385/7 168/355/7
f 172/386/7 176/387/7 174/388/7
f 173/389/1 175/390/1 177/391/1
f 174/392/8 176/393/8 177/191/8 175/190/8
f 172/386/7 178/394/7 176/387/7
f 173/389/1 177/391/1 179/395/1
f 176/393/10 178/396/10 179/194/10 177/191/10
f 172/386/7 180/397/7 178/394/7
f 173/389/1 179/395/1 181/398/1
f 178/396/11 180/399/11 181/197/11 179/194/11
f 172/386/7 182/400/7 180/397/7
f 173/389/1 181/398/1 183/401/1
f 180/399/12 182/402/12 183/200/12 181/197/12
f 172/386/7 184/403/7 182/400/7
f 173/389/1 183/401/1 185/404/1
f 182/402/13 184/405/13 185/203/13 183/200/13
f 172/386/7 174/388/7 184/403/7
f 173/389/1 185/404/1 175/390/1
f 184/405/9 174/406/9 175/205/9 185/203/9
