# Blender v2.92.0 OBJ File: 'horror_01.blend'
# www.blender.org
mtllib gravestone.mtl
o Cube.005_Cube.018
v -1.627114 0.021001 0.238648
v -1.627114 3.803875 0.238648
v -1.627114 0.021001 -0.338791
v -1.627114 3.803875 -0.338791
v 1.615736 0.021001 0.238648
v 1.615736 3.803875 0.238648
v 1.615736 0.021001 -0.338791
v 1.615736 3.803875 -0.338791
v -1.361623 4.398691 0.238648
v -1.361623 4.398691 -0.338791
v 1.350245 4.398691 -0.338791
v 1.350245 4.398691 0.238648
v -0.996490 4.755445 0.238648
v -0.996490 4.755445 -0.338791
v 0.985112 4.755445 -0.338791
v 0.985112 4.755445 0.238648
vt 1.000000 0.000000
vt 1.000000 0.406262
vt 0.924425 0.406262
vt 0.924425 0.000000
vt 0.424425 0.000000
vt 0.424425 0.495103
vt 0.000000 0.495103
vt 0.000000 0.000000
vt 0.924425 0.000000
vt 0.924425 0.406262
vt 0.848849 0.406262
vt 0.848849 0.000000
vt 0.848849 0.495103
vt 0.424425 0.495103
vt 0.424425 0.000000
vt 1.000000 0.555630
vt 1.000000 0.980055
vt 0.924425 0.980055
vt 0.924425 0.555630
vt 0.924425 0.490003
vt 0.848849 0.490003
vt 0.459172 0.572953
vt 0.814102 0.572953
vt 0.766313 0.619645
vt 0.506961 0.619645
vt 1.000000 0.490003
vt 0.924425 0.490003
vt 0.389677 0.572953
vt 0.034747 0.572953
vt 0.924425 0.555630
vt 0.924425 0.703866
vt 0.848849 0.703866
vt 0.848849 0.555630
vt 0.341888 0.619645
vt 0.082536 0.619645
vt 1.000000 0.555630
vt 0.924425 0.555630
vn -1.0000 0.0000 0.0000
vn 0.0000 0.0000 -1.0000
vn 1.0000 0.0000 0.0000
vn 0.0000 0.0000 1.0000
vn 0.0000 -1.0000 0.0000
vn 0.9132 0.4076 0.0000
vn -0.9132 0.4076 0.0000
vn 0.0000 1.0000 0.0000
vn 0.6989 0.7153 0.0000
vn -0.6989 0.7153 0.0000
usemtl Grave
s off
f 1/1/1 2/2/1 4/3/1 3/4/1
f 3/5/2 4/6/2 8/7/2 7/8/2
f 7/9/3 8/10/3 6/11/3 5/12/3
f 5/12/4 6/13/4 2/14/4 1/15/4
f 3/16/5 7/17/5 5/18/5 1/19/5
f 6/11/6 8/10/6 11/20/6 12/21/6
f 9/22/4 12/23/4 16/24/4 13/25/4
f 4/3/7 2/2/7 9/26/7 10/27/7
f 2/14/4 6/13/4 12/23/4 9/22/4
f 8/7/2 4/6/2 10/28/2 11/29/2
f 15/30/8 14/31/8 13/32/8 16/33/8
f 11/29/2 10/28/2 14/34/2 15/35/2
f 12/21/9 11/20/9 15/30/9 16/33/9
f 10/27/10 9/26/10 13/36/10 14/37/10
