# Blender v2.92.0 OBJ File: 'horror_01.blend'
# www.blender.org
mtllib house_door.mtl
o Cube.006_Cube.019
v 0.108211 6.845234 0.044828
v 0.108211 6.845234 4.047379
v 0.108211 -1.088934 4.047379
v 0.108211 -1.088934 0.044828
v 0.339135 2.883312 3.532302
v 0.339135 3.056653 3.532302
v 0.339135 2.883312 3.358962
v 0.339135 3.056653 3.358962
v -0.327403 2.883312 3.532302
v -0.327403 3.056653 3.532302
v -0.327403 2.883312 3.358962
v -0.327403 3.056653 3.358962
v -0.385325 2.676132 3.433682
v -0.165479 2.844080 3.593407
v -0.469296 2.844080 3.692125
v -0.657071 2.844080 3.433682
v -0.469296 2.844080 3.175239
v -0.165479 2.844080 3.273957
v -0.301353 3.115827 3.692125
v -0.605170 3.115827 3.593407
v -0.605170 3.115827 3.273957
v -0.301353 3.115827 3.175239
v -0.113580 3.115827 3.433682
v -0.385325 3.283775 3.433682
v 0.522139 2.676132 3.433682
v 0.741984 2.844080 3.593407
v 0.438168 2.844080 3.692125
v 0.250393 2.844080 3.433682
v 0.438168 2.844080 3.175239
v 0.741984 2.844080 3.273957
v 0.606111 3.115827 3.692125
v 0.302294 3.115827 3.593407
v 0.302294 3.115827 3.273957
v 0.606111 3.115827 3.175239
v 0.793884 3.115827 3.433682
v 0.522139 3.283775 3.433682
v 0.229328 -1.088934 0.044828
v 0.229328 -1.088934 4.047379
v 0.229328 6.845234 0.044828
v 0.229328 6.845234 4.047379
vt 0.375000 0.250000
vt 0.625000 0.250000
vt 0.625000 0.500000
vt 0.375000 0.500000
vt 0.375000 0.750000
vt 0.625000 0.750000
vt 0.625000 1.000000
vt 0.375000 1.000000
vt 0.125000 0.500000
vt 0.125000 0.750000
vt 0.875000 0.500000
vt 0.875000 0.750000
vt 0.818181 0.000000
vt 0.727272 0.157461
vt 0.909090 0.157461
vt 0.636363 0.000000
vt 0.545454 0.157461
vt 0.090909 0.000000
vt 0.000000 0.157461
vt 0.181818 0.157461
vt 0.272727 0.000000
vt 0.363636 0.157461
vt 0.454545 0.000000
vt 0.636363 0.314921
vt 0.818181 0.314921
vt 0.090909 0.314921
vt 0.272727 0.314921
vt 0.454545 0.314921
vt 1.000000 0.314921
vt 0.727272 0.472382
vt 0.909090 0.472382
vt 0.181818 0.472382
vt 0.363636 0.472382
vt 0.545454 0.472382
vt 0.818181 0.000000
vt 0.727272 0.157461
vt 0.909090 0.157461
vt 0.636363 0.000000
vt 0.545454 0.157461
vt 0.090909 0.000000
vt 0.000000 0.157461
vt 0.181818 0.157461
vt 0.272727 0.000000
vt 0.363636 0.157461
vt 0.454545 0.000000
vt 0.636363 0.314921
vt 0.818181 0.314921
vt 0.090909 0.314921
vt 0.272727 0.314921
vt 0.454545 0.314921
vt 1.000000 0.314921
vt 0.727272 0.472382
vt 0.909090 0.472382
vt 0.181818 0.472382
vt 0.363636 0.472382
vt 0.545454 0.472382
vt 0.397292 0.152300
vt 0.401004 0.222700
vt 0.579928 0.222700
vt 0.534468 0.152300
vt 0.397292 0.152300
vt 0.534468 0.152300
vt 0.579928 0.222700
vt 0.401004 0.222700
vn 0.0000 0.0000 1.0000
vn 0.0000 0.0000 -1.0000
vn 0.0000 1.0000 0.0000
vn 0.0000 -1.0000 0.0000
vn 0.7236 -0.4472 0.5257
vn -0.2764 -0.4472 0.8506
vn 0.7236 -0.4472 -0.5257
vn -0.8944 -0.4472 0.0000
vn -0.2764 -0.4472 -0.8506
vn 0.8944 0.4472 0.0000
vn 0.2764 0.4472 0.8506
vn -0.7236 0.4472 0.5257
vn -0.7236 0.4472 -0.5257
vn 0.2764 0.4472 -0.8506
vn 1.0000 0.0000 0.0000
vn -1.0000 0.0000 0.0000
usemtl Material.003
s off
f 7/1/1 8/2/1 12/3/1 11/4/1
f 9/5/2 10/6/2 6/7/2 5/8/2
f 7/9/3 11/4/3 9/5/3 5/10/3
f 12/3/4 8/11/4 6/12/4 10/6/4
s 1
f 13/13/4 14/14/5 15/15/6
f 14/14/5 13/16/4 18/17/7
f 13/18/4 15/19/6 16/20/8
f 13/21/4 16/20/8 17/22/9
f 13/23/4 17/22/9 18/17/7
f 14/14/5 18/17/7 23/24/10
f 15/15/6 14/14/5 19/25/11
f 16/20/8 15/19/6 20/26/12
f 17/22/9 16/20/8 21/27/13
f 18/17/7 17/22/9 22/28/14
f 14/14/5 23/24/10 19/25/11
f 15/15/6 19/25/11 20/29/12
f 16/20/8 20/26/12 21/27/13
f 17/22/9 21/27/13 22/28/14
f 18/17/7 22/28/14 23/24/10
f 19/25/11 23/24/10 24/30/3
f 20/29/12 19/25/11 24/31/3
f 21/27/13 20/26/12 24/32/3
f 22/28/14 21/27/13 24/33/3
f 23/24/10 22/28/14 24/34/3
f 25/35/4 26/36/5 27/37/6
f 26/36/5 25/38/4 30/39/7
f 25/40/4 27/41/6 28/42/8
f 25/43/4 28/42/8 29/44/9
f 25/45/4 29/44/9 30/39/7
f 26/36/5 30/39/7 35/46/10
f 27/37/6 26/36/5 31/47/11
f 28/42/8 27/41/6 32/48/12
f 29/44/9 28/42/8 33/49/13
f 30/39/7 29/44/9 34/50/14
f 26/36/5 35/46/10 31/47/11
f 27/37/6 31/47/11 32/51/12
f 28/42/8 32/48/12 33/49/13
f 29/44/9 33/49/13 34/50/14
f 30/39/7 34/50/14 35/46/10
f 31/47/11 35/46/10 36/52/3
f 32/51/12 31/47/11 36/53/3
f 33/49/13 32/48/12 36/54/3
f 34/50/14 33/49/13 36/55/3
f 35/46/10 34/50/14 36/56/3
usemtl Material.005
s off
f 3/57/15 4/58/15 1/59/15 2/60/15
f 38/61/16 40/62/16 39/63/16 37/64/16
f 3/57/2 2/60/2 40/62/2 38/61/2
f 4/58/3 3/57/3 38/61/3 37/64/3
f 2/60/4 1/59/4 39/63/4 40/62/4
f 1/59/1 4/58/1 37/64/1 39/63/1
