# Blender v2.92.0 OBJ File: 'horror_01.blend'
# www.blender.org
mtllib key.mtl
o Cube.002_Cube.015
v -0.008282 -0.021164 0.405996
v -0.008282 0.021164 0.405996
v -0.008282 -0.021164 -0.181856
v -0.008282 0.021164 -0.181856
v 0.078036 -0.021164 0.405996
v 0.078036 0.021164 0.405996
v 0.078036 -0.021164 -0.181856
v 0.078036 0.021164 -0.181856
v -0.008282 -0.021164 0.208423
v -0.008282 -0.021164 0.377833
v -0.008282 0.021164 0.377833
v -0.008282 0.021164 0.208423
v 0.078036 -0.021164 0.377833
v 0.078036 -0.021164 0.208423
v 0.078036 0.021164 0.208423
v 0.078036 0.021164 0.377833
v -0.008282 -0.021164 0.234608
v -0.008282 0.021164 0.234608
v 0.078036 -0.021164 0.234608
v 0.078036 0.021164 0.234608
v -0.106116 -0.021164 0.377833
v -0.106116 -0.021164 0.405996
v -0.106116 0.021164 0.405996
v -0.106116 0.021164 0.377833
v -0.106116 0.021164 0.234608
v -0.106116 0.021164 0.208423
v -0.106116 -0.021164 0.208423
v -0.106116 -0.021164 0.234608
v -0.008282 -0.021164 0.324419
v 0.078036 0.021164 0.324419
v -0.008282 0.021164 0.324419
v 0.078036 -0.021164 0.324419
v -0.008282 0.021164 0.296960
v 0.078036 -0.021164 0.296960
v -0.008282 -0.021164 0.296960
v 0.078036 0.021164 0.296960
v -0.054575 -0.021164 0.296960
v -0.054575 -0.021164 0.324419
v -0.054575 0.021164 0.324419
v -0.054575 0.021164 0.296960
v -0.008282 0.021164 -0.256344
v -0.008282 -0.021164 -0.256344
v 0.078036 -0.021164 -0.256344
v 0.078036 0.021164 -0.256344
v -0.063589 0.021164 -0.203258
v -0.063589 -0.021164 -0.203258
v -0.063589 0.021164 -0.256344
v -0.063589 -0.021164 -0.256344
v 0.130943 0.021164 -0.203258
v 0.130943 -0.021164 -0.203258
v 0.130943 0.021164 -0.256344
v 0.130943 -0.021164 -0.256344
v 0.149318 0.021164 -0.226850
v 0.149318 -0.021164 -0.226850
v 0.168434 0.021164 -0.256344
v 0.168434 -0.021164 -0.256344
v -0.088511 0.021164 -0.226002
v -0.088511 -0.021164 -0.226002
v -0.100442 0.021164 -0.256344
v -0.100442 -0.021164 -0.256344
v -0.063589 0.021164 -0.417548
v -0.063589 -0.021164 -0.417548
v 0.130943 0.021164 -0.417548
v 0.130943 -0.021164 -0.417548
v 0.168434 0.021164 -0.417548
v 0.168434 -0.021164 -0.417548
v -0.100442 0.021164 -0.417548
v -0.100442 -0.021164 -0.417548
v -0.063589 0.021164 -0.467682
v -0.063589 -0.021164 -0.467682
v 0.130943 0.021164 -0.467682
v 0.130943 -0.021164 -0.467682
v 0.149655 0.021164 -0.458519
v 0.149655 -0.021164 -0.458519
v -0.082267 0.021164 -0.445586
v -0.082267 -0.021164 -0.445586
v 0.033676 0.021164 -0.417548
v 0.033676 -0.021164 -0.417548
v 0.033676 0.021164 -0.417548
v 0.033676 -0.021164 -0.417548
v 0.033676 0.021164 -0.467682
v 0.033676 -0.021164 -0.467682
v 0.033676 0.021164 -0.467682
v 0.033676 -0.021164 -0.467682
vt 0.375000 0.081071
vt 0.625000 0.081071
vt 0.625000 0.241218
vt 0.375000 0.241218
vt 0.625000 0.508782
vt 0.375000 0.508782
vt 0.375000 0.500000
vt 0.625000 0.500000
vt 0.375000 0.738444
vt 0.625000 0.738444
vt 0.625000 0.750000
vt 0.375000 0.750000
vt 0.625000 1.000000
vt 0.375000 1.000000
vt 0.125000 0.738444
vt 0.125000 0.750000
vt 0.875000 0.738444
vt 0.875000 0.750000
vt 0.875000 0.508782
vt 0.875000 0.668929
vt 0.625000 0.668929
vt 0.625000 0.716526
vt 0.875000 0.716526
vt 0.125000 0.508782
vt 0.375000 0.668929
vt 0.125000 0.668928
vt 0.125000 0.716526
vt 0.375000 0.716526
vt 0.125000 0.679673
vt 0.125000 0.679673
vt 0.125000 0.668928
vt 0.375000 0.070327
vt 0.625000 0.070327
vt 0.625000 0.070327
vt 0.375000 0.070327
vt 0.375000 0.044742
vt 0.625000 0.044742
vt 0.625000 0.679673
vt 0.375000 0.679673
vt 0.875000 0.679673
vt 0.375000 0.000000
vt 0.625000 0.000000
vt 0.625000 0.011556
vt 0.375000 0.011556
vt 0.625000 0.081071
vt 0.375000 0.081071
vt 0.625000 0.011556
vt 0.375000 0.011556
vt 0.875000 0.668929
vt 0.875000 0.679673
vt 0.125000 0.750000
vt 0.125000 0.738444
vt 0.875000 0.738444
vt 0.875000 0.750000
vt 0.625000 1.000000
vt 0.375000 1.000000
vt 0.625000 0.033474
vt 0.375000 0.033474
vt 0.375000 0.705258
vt 0.625000 0.705258
vt 0.125000 0.705258
vt 0.875000 0.705258
vt 0.125000 0.716526
vt 0.125000 0.705258
vt 0.375000 0.033474
vt 0.625000 0.033474
vt 0.625000 0.044742
vt 0.375000 0.044742
vt 0.875000 0.705258
vt 0.875000 0.716526
vt 0.375000 0.250000
vt 0.625000 0.250000
vt 0.625000 0.500000
vt 0.375000 0.500000
vt 0.125000 0.500000
vt 0.875000 0.500000
vt 0.375000 0.250000
vt 0.625000 0.250000
vt 0.875000 0.500000
vt 0.875000 0.500000
vt 0.875000 0.500000
vt 0.875000 0.500000
vt 0.125000 0.500000
vt 0.125000 0.500000
vt 0.625000 0.250000
vt 0.375000 0.250000
vt 0.375000 0.500000
vt 0.375000 0.500000
vt 0.375000 0.500000
vt 0.625000 0.500000
vt 0.625000 0.500000
vt 0.625000 0.500000
vt 0.625000 0.500000
vt 0.625000 0.500000
vt 0.375000 0.250000
vt 0.625000 0.250000
vt 0.625000 0.250000
vt 0.375000 0.250000
vt 0.625000 0.250000
vt 0.375000 0.250000
vt 0.125000 0.500000
vt 0.125000 0.500000
vt 0.375000 0.500000
vt 0.375000 0.500000
vt 0.625000 0.500000
vt 0.625000 0.500000
vt 0.375000 0.250000
vt 0.625000 0.250000
vt 0.125000 0.500000
vt 0.125000 0.500000
vt 0.875000 0.500000
vt 0.875000 0.500000
vt 0.375000 0.500000
vt 0.375000 0.500000
vt 0.625000 0.250000
vt 0.375000 0.250000
vt 0.375000 0.250000
vt 0.625000 0.250000
vt 0.375000 0.500000
vt 0.375000 0.500000
vt 0.125000 0.500000
vt 0.125000 0.500000
vt 0.375000 0.250000
vt 0.625000 0.250000
vt 0.875000 0.500000
vt 0.875000 0.500000
vt 0.125000 0.500000
vt 0.125000 0.500000
vt 0.625000 0.250000
vt 0.375000 0.250000
vt 0.625000 0.500000
vt 0.625000 0.500000
vt 0.875000 0.500000
vt 0.875000 0.500000
vn -1.0000 0.0000 0.0000
vn 0.3750 0.0000 0.9270
vn 1.0000 0.0000 0.0000
vn 0.0000 0.0000 1.0000
vn 0.0000 -1.0000 0.0000
vn 0.0000 1.0000 0.0000
vn 0.0000 0.0000 -1.0000
vn -0.3609 0.0000 0.9326
vn 0.8392 0.0000 0.5439
vn 0.7889 0.0000 0.6145
vn -0.9306 0.0000 0.3659
vn -0.6741 0.0000 0.7386
vn 0.9091 0.0000 -0.4167
vn 0.4398 0.0000 -0.8981
vn -0.7637 0.0000 -0.6456
vn -0.8391 0.0000 -0.5439
usemtl None
s off
f 9/1/1 12/2/1 4/3/1 3/4/1
f 8/5/2 7/6/2 50/7/2 49/8/2
f 13/9/3 16/10/3 6/11/3 5/12/3
f 5/12/4 6/11/4 2/13/4 1/14/4
f 10/15/5 13/9/5 5/12/5 1/16/5
f 16/10/6 11/17/6 2/18/6 6/11/6
f 8/5/6 4/19/6 12/20/6 15/21/6
f 30/22/6 31/23/6 11/17/6 16/10/6
f 3/24/5 7/6/5 14/25/5 9/26/5
f 29/27/5 32/28/5 13/9/5 10/15/5
f 7/6/3 8/5/3 15/21/3 14/25/3
f 32/28/3 30/22/3 16/10/3 13/9/3
f 9/26/5 17/29/5 28/30/5 27/31/5
f 17/32/4 18/33/4 25/34/4 28/35/4
f 35/36/1 33/37/1 18/33/1 17/32/1
f 14/25/3 15/21/3 20/38/3 19/39/3
f 9/26/5 14/25/5 19/39/5 17/29/5
f 15/21/6 12/20/6 18/40/6 20/38/6
f 22/41/1 23/42/1 24/43/1 21/44/1
f 28/35/1 25/34/1 26/45/1 27/46/1
f 11/47/7 10/48/7 21/44/7 24/43/7
f 18/40/6 12/20/6 26/49/6 25/50/6
f 10/15/5 1/16/5 22/51/5 21/52/5
f 12/2/7 9/1/7 27/46/7 26/45/7
f 2/18/6 11/17/6 24/53/6 23/54/6
f 1/14/4 2/13/4 23/55/4 22/56/4
f 10/48/1 11/47/1 31/57/1 29/58/1
f 34/59/3 36/60/3 30/22/3 32/28/3
f 35/61/5 34/59/5 32/28/5 29/27/5
f 36/60/6 33/62/6 31/23/6 30/22/6
f 20/38/6 18/40/6 33/62/6 36/60/6
f 17/29/5 19/39/5 34/59/5 35/61/5
f 19/39/3 20/38/3 36/60/3 34/59/3
f 35/61/5 29/27/5 38/63/5 37/64/5
f 38/65/1 39/66/1 40/67/1 37/68/1
f 31/23/6 33/62/6 40/69/6 39/70/6
f 29/58/4 31/57/4 39/66/4 38/65/4
f 33/37/7 35/36/7 37/68/7 40/67/7
f 42/71/7 41/72/7 44/73/7 43/74/7
f 7/6/5 3/24/5 42/75/5 43/74/5
f 4/19/6 8/5/6 44/73/6 41/76/6
f 41/72/7 42/71/7 48/77/7 47/78/7
f 45/79/6 47/80/6 59/81/6 57/82/6
f 4/19/6 41/76/6 47/80/6 45/79/6
f 42/75/5 3/24/5 46/83/5 48/84/5
f 3/4/8 4/3/8 45/85/8 46/86/8
f 50/7/5 52/87/5 56/88/5 54/89/5
f 44/73/6 8/5/6 49/8/6 51/90/6
f 43/74/7 44/73/7 51/90/7 52/87/7
f 7/6/5 43/74/5 52/87/5 50/7/5
f 53/91/9 54/89/9 56/88/9 55/92/9
f 49/8/10 50/7/10 54/89/10 53/91/10
f 51/90/6 49/8/6 53/91/6 55/92/6
f 51/90/6 55/92/6 65/93/6 63/94/6
f 58/95/11 57/96/11 59/97/11 60/98/11
f 60/98/1 59/97/1 67/99/1 68/100/1
f 48/84/5 46/83/5 58/101/5 60/102/5
f 46/86/12 45/85/12 57/96/12 58/95/12
f 65/93/13 66/103/13 74/104/13 73/105/13
f 63/94/6 65/93/6 73/105/6 71/106/6
f 47/78/3 48/77/3 62/107/3 61/108/3
f 48/84/5 60/102/5 68/109/5 62/110/5
f 59/81/6 47/80/6 61/111/6 67/112/6
f 55/92/3 56/88/3 66/103/3 65/93/3
f 52/87/1 51/90/1 63/94/1 64/113/1
f 56/88/5 52/87/5 64/113/5 66/103/5
f 72/114/14 71/106/14 73/105/14 74/104/14
f 69/115/15 70/116/15 76/117/15 75/118/15
f 72/114/5 64/113/5 80/119/5 84/120/5
f 62/110/5 68/109/5 76/121/5 70/122/5
f 68/100/16 67/99/16 75/118/16 76/117/16
f 66/103/5 64/113/5 72/114/5 74/104/5
f 61/108/4 62/107/4 78/123/4 77/124/4
f 67/112/6 61/111/6 69/125/6 75/126/6
f 62/110/5 70/122/5 82/127/5 78/128/5
f 70/116/7 69/115/7 81/129/7 82/130/7
f 63/94/6 71/106/6 83/131/6 79/132/6
f 64/113/4 63/94/4 79/132/4 80/119/4
f 69/125/6 61/111/6 77/133/6 81/134/6
f 71/106/7 72/114/7 84/120/7 83/131/7
