# Blender v2.92.0 OBJ File: 'horror_01.blend'
# www.blender.org
mtllib moon.mtl
o Cone
v 0.000000 0.101668 -1.000000
v 0.195090 0.101668 -0.980785
v 0.382683 0.101668 -0.923880
v 0.555570 0.101668 -0.831470
v 0.707107 0.101668 -0.707107
v 0.831470 0.101668 -0.555570
v 0.923880 0.101668 -0.382683
v 0.980785 0.101668 -0.195090
v 1.000000 0.101668 -0.000000
v 0.980785 0.101668 0.195090
v 0.923880 0.101668 0.382683
v 0.831470 0.101668 0.555570
v 0.707107 0.101668 0.707107
v 0.555570 0.101668 0.831470
v 0.382683 0.101668 0.923880
v 0.195090 0.101668 0.980785
v -0.000000 0.101668 1.000000
v -0.195091 0.101668 0.980785
v -0.195089 0.101668 -0.980786
v 0.000000 0.005591 -1.000000
v 0.195090 0.005591 -0.980785
v 0.382683 0.005591 -0.923880
v 0.555570 0.005591 -0.831470
v 0.707107 0.005591 -0.707107
v 0.831470 0.005591 -0.555570
v 0.923880 0.005591 -0.382683
v 0.980785 0.005591 -0.195090
v 1.000000 0.005591 -0.000000
v 0.980785 0.005591 0.195090
v 0.923880 0.005591 0.382683
v 0.831470 0.005591 0.555570
v 0.707107 0.005591 0.707107
v 0.555570 0.005591 0.831470
v 0.382683 0.005591 0.923880
v 0.195090 0.005591 0.980785
v -0.000000 0.005591 1.000000
v -0.195091 0.005591 0.980785
v -0.195089 0.005591 -0.980786
v -0.236879 0.101668 -0.968109
v -0.236879 0.005591 -0.968109
v -0.091076 0.005591 -0.923880
v -0.091076 0.101668 -0.923880
v 0.081811 0.005591 -0.831470
v 0.081811 0.101668 -0.831470
v 0.233348 0.005591 -0.707107
v 0.233348 0.101668 -0.707107
v 0.357710 0.101668 -0.555570
v 0.357710 0.005591 -0.555570
v 0.507026 0.101668 -0.195090
v 0.507026 0.005591 -0.195090
v 0.450120 0.101668 -0.382683
v 0.450120 0.005591 -0.382683
v 0.526241 0.101668 -0.000000
v 0.526241 0.005591 -0.000000
v 0.507026 0.101668 0.195090
v 0.507026 0.005591 0.195090
v 0.450120 0.101668 0.382683
v 0.450120 0.005591 0.382683
v 0.357710 0.101668 0.555570
v 0.357710 0.005591 0.555570
v 0.233348 0.101668 0.707107
v 0.233348 0.005591 0.707107
v 0.081811 0.101668 0.831470
v 0.081811 0.005591 0.831470
v -0.091076 0.101668 0.923880
v -0.091076 0.005591 0.923880
v -0.236880 0.005591 0.968109
v -0.236880 0.101668 0.968109
vt 0.858029 0.158156
vt 0.835851 0.116663
vt 0.919706 0.080294
vt 0.985388 0.203178
vt 0.871686 0.203178
vt 0.876298 0.250000
vt 0.796822 0.485388
vt 0.750000 0.490000
vt 0.750000 0.490000
vt 0.841844 0.471731
vt 0.796822 0.485388
vt 0.883337 0.449553
vt 0.841844 0.471731
vt 0.919706 0.419706
vt 0.883337 0.449553
vt 0.949553 0.383337
vt 0.919706 0.419706
vt 0.703179 0.485389
vt 0.703179 0.485389
vt 0.971731 0.341844
vt 0.949553 0.383337
vt 0.985388 0.296822
vt 0.971731 0.341844
vt 0.990000 0.250000
vt 0.985388 0.296822
vt 0.985388 0.203178
vt 0.990000 0.250000
vt 0.971731 0.158156
vt 0.949553 0.116663
vt 0.971731 0.158156
vt 0.949553 0.116663
vt 0.883337 0.050447
vt 0.919706 0.080294
vt 0.841844 0.028269
vt 0.883337 0.050447
vt 0.796822 0.014612
vt 0.841844 0.028269
vt 0.750000 0.010000
vt 0.796822 0.014612
vt 0.703178 0.014612
vt 0.750000 0.010000
vt 0.693149 0.017654
vt 0.703178 0.014612
vt 0.693149 0.482346
vt 0.693149 0.482346
vt 0.728142 0.471731
vt 0.769635 0.449553
vt 0.728142 0.471731
vt 0.769635 0.449553
vt 0.806003 0.419706
vt 0.806003 0.419706
vt 0.835850 0.383337
vt 0.858029 0.341844
vt 0.835850 0.383337
vt 0.858029 0.341844
vt 0.871686 0.296822
vt 0.876298 0.250000
vt 0.871686 0.296822
vt 0.858029 0.158156
vt 0.871686 0.203178
vt 0.835851 0.116663
vt 0.806004 0.080294
vt 0.806003 0.080294
vt 0.769635 0.050447
vt 0.728142 0.028269
vt 0.769635 0.050447
vt 0.693149 0.017654
vt 0.728142 0.028269
vn 0.0000 1.0000 0.0000
vn 0.0000 -1.0000 0.0000
vn 0.0980 0.0000 -0.9952
vn 0.2903 0.0000 -0.9569
vn 0.4714 0.0000 -0.8819
vn 0.6344 0.0000 -0.7730
vn 0.7730 0.0000 -0.6344
vn -0.0980 0.0000 -0.9952
vn 0.8819 0.0000 -0.4714
vn 0.9569 0.0000 -0.2903
vn 0.9952 0.0000 -0.0980
vn 0.9952 0.0000 0.0980
vn 0.9569 0.0000 0.2903
vn 0.8819 0.0000 0.4714
vn 0.7730 0.0000 0.6344
vn 0.6344 0.0000 0.7730
vn 0.4714 0.0000 0.8819
vn 0.2903 0.0000 0.9569
vn 0.0980 0.0000 0.9952
vn -0.0980 0.0000 0.9952
vn -0.2903 0.0000 0.9569
vn -0.2903 0.0000 -0.9569
vn -0.4714 0.0000 0.8819
vn -0.6344 0.0000 0.7730
vn -0.7730 0.0000 0.6344
vn -0.8819 0.0000 0.4714
vn -0.9569 0.0000 0.2903
vn -0.9952 0.0000 0.0980
vn -0.9952 0.0000 -0.0980
vn -0.9569 -0.0000 -0.2903
vn -0.8819 0.0000 -0.4714
vn -0.7730 0.0000 -0.6344
vn -0.6344 -0.0000 -0.7730
vn -0.4714 -0.0000 -0.8819
usemtl None
s off
f 57/1/1 59/2/1 13/3/1
f 29/4/2 56/5/2 54/6/2
f 2/7/3 20/8/3 1/9/3
f 3/10/4 21/11/4 2/7/4
f 4/12/5 22/13/5 3/10/5
f 5/14/6 23/15/6 4/12/6
f 6/16/7 24/17/7 5/14/7
f 1/9/8 38/18/8 19/19/8
f 7/20/9 25/21/9 6/16/9
f 8/22/10 26/23/10 7/20/10
f 9/24/11 27/25/11 8/22/11
f 10/26/12 28/27/12 9/24/12
f 11/28/13 29/4/13 10/26/13
f 12/29/14 30/30/14 11/28/14
f 13/3/15 31/31/15 12/29/15
f 14/32/16 32/33/16 13/3/16
f 15/34/17 33/35/17 14/32/17
f 16/36/18 34/37/18 15/34/18
f 17/38/19 35/39/19 16/36/19
f 18/40/20 36/41/20 17/38/20
f 68/42/21 37/43/21 18/40/21
f 39/44/22 38/18/22 40/45/22
f 40/45/21 42/46/21 39/44/21
f 43/47/23 42/46/23 41/48/23
f 44/49/24 45/50/24 46/51/24
f 48/52/25 46/51/25 45/50/25
f 48/52/26 51/53/26 47/54/26
f 52/55/27 49/56/27 51/53/27
f 53/57/28 50/58/28 54/6/28
f 56/5/29 53/57/29 54/6/29
f 58/59/30 55/60/30 56/5/30
f 60/61/31 57/1/31 58/59/31
f 60/61/32 61/62/32 59/2/32
f 62/63/33 63/64/33 61/62/33
f 66/65/34 63/64/34 64/66/34
f 67/67/22 65/68/22 66/65/22
f 2/7/1 1/9/1 44/49/1
f 1/9/1 19/19/1 42/46/1
f 44/49/1 1/9/1 42/46/1
f 19/19/1 39/44/1 42/46/1
f 3/10/1 2/7/1 46/51/1
f 5/14/1 4/12/1 47/54/1
f 4/12/1 3/10/1 46/51/1
f 7/20/1 6/16/1 51/53/1
f 6/16/1 5/14/1 51/53/1
f 7/20/1 51/53/1 49/56/1
f 9/24/1 8/22/1 53/57/1
f 8/22/1 7/20/1 49/56/1
f 11/28/1 10/26/1 55/60/1
f 10/26/1 9/24/1 53/57/1
f 13/3/1 12/29/1 57/1/1
f 12/29/1 11/28/1 57/1/1
f 57/1/1 11/28/1 55/60/1
f 15/34/1 14/32/1 61/62/1
f 14/32/1 13/3/1 59/2/1
f 61/62/1 14/32/1 59/2/1
f 17/38/1 16/36/1 63/64/1
f 16/36/1 15/34/1 61/62/1
f 63/64/1 16/36/1 61/62/1
f 68/42/1 18/40/1 65/68/1
f 18/40/1 17/38/1 65/68/1
f 10/26/1 53/57/1 55/60/1
f 8/22/1 49/56/1 53/57/1
f 4/12/1 46/51/1 47/54/1
f 2/7/1 44/49/1 46/51/1
f 65/68/1 17/38/1 63/64/1
f 5/14/1 47/54/1 51/53/1
f 38/18/2 20/8/2 41/48/2
f 20/8/2 21/11/2 43/47/2
f 41/48/2 20/8/2 43/47/2
f 21/11/2 22/13/2 45/50/2
f 22/13/2 23/15/2 45/50/2
f 23/15/2 24/17/2 48/52/2
f 24/17/2 25/21/2 52/55/2
f 48/52/2 24/17/2 52/55/2
f 25/21/2 26/23/2 52/55/2
f 26/23/2 27/25/2 50/58/2
f 52/55/2 26/23/2 50/58/2
f 27/25/2 28/27/2 54/6/2
f 28/27/2 29/4/2 54/6/2
f 29/4/2 30/30/2 56/5/2
f 30/30/2 31/31/2 58/59/2
f 31/31/2 32/33/2 58/59/2
f 32/33/2 33/35/2 60/61/2
f 33/35/2 34/37/2 62/63/2
f 34/37/2 35/39/2 62/63/2
f 35/39/2 36/41/2 64/66/2
f 36/41/2 37/43/2 66/65/2
f 64/66/2 36/41/2 66/65/2
f 37/43/2 67/67/2 66/65/2
f 30/30/2 58/59/2 56/5/2
f 32/33/2 60/61/2 58/59/2
f 45/50/2 23/15/2 48/52/2
f 40/45/2 38/18/2 41/48/2
f 35/39/2 64/66/2 62/63/2
f 45/50/2 43/47/2 21/11/2
f 33/35/2 62/63/2 60/61/2
f 50/58/2 27/25/2 54/6/2
f 2/7/3 21/11/3 20/8/3
f 3/10/4 22/13/4 21/11/4
f 4/12/5 23/15/5 22/13/5
f 5/14/6 24/17/6 23/15/6
f 6/16/7 25/21/7 24/17/7
f 1/9/8 20/8/8 38/18/8
f 7/20/9 26/23/9 25/21/9
f 8/22/10 27/25/10 26/23/10
f 9/24/11 28/27/11 27/25/11
f 10/26/12 29/4/12 28/27/12
f 11/28/13 30/30/13 29/4/13
f 12/29/14 31/31/14 30/30/14
f 13/3/15 32/33/15 31/31/15
f 14/32/16 33/35/16 32/33/16
f 15/34/17 34/37/17 33/35/17
f 16/36/18 35/39/18 34/37/18
f 17/38/19 36/41/19 35/39/19
f 18/40/20 37/43/20 36/41/20
f 68/42/21 67/67/21 37/43/21
f 39/44/22 19/19/22 38/18/22
f 40/45/21 41/48/21 42/46/21
f 43/47/23 44/49/23 42/46/23
f 44/49/24 43/47/24 45/50/24
f 48/52/25 47/54/25 46/51/25
f 48/52/26 52/55/26 51/53/26
f 52/55/27 50/58/27 49/56/27
f 53/57/28 49/56/28 50/58/28
f 56/5/29 55/60/29 53/57/29
f 58/59/30 57/1/30 55/60/30
f 60/61/31 59/2/31 57/1/31
f 60/61/32 62/63/32 61/62/32
f 62/63/33 64/66/33 63/64/33
f 66/65/34 65/68/34 63/64/34
f 67/67/22 68/42/22 65/68/22
