# Blender v2.92.0 OBJ File: 'horror_01.blend'
# www.blender.org
mtllib paper.mtl
o Plane_Plane.004
v -1.000000 0.000000 7.778874
v 0.908633 0.180444 7.649917
v -0.813126 0.353568 4.710473
v 1.017583 0.033268 4.553977
v -0.860346 0.264228 5.477110
v -0.949066 0.096368 6.205383
v -0.999878 0.000232 6.968699
v 0.998955 0.002064 6.967112
v 1.000000 0.000000 6.158298
v 1.008088 0.015303 5.355487
v 0.266841 0.012303 7.770082
v 0.425210 0.055259 7.739383
v 0.418200 0.043062 7.562023
v 0.437674 0.000065 6.968618
vt 0.033538 0.715206
vt 0.612521 0.753705
vt 0.614702 1.000000
vt 0.043711 0.952537
vt 0.003490 0.000000
vt 0.392478 0.008218
vt 0.442075 0.255305
vt 0.000000 0.248780
vt 0.611166 0.507027
vt 0.011909 0.485015
vt 0.614702 0.258825
vt 0.439800 0.072169
vt 0.441426 0.017519
vt 0.595543 0.041028
vn 0.1570 0.9849 0.0731
vn -0.0045 1.0000 -0.0079
vn 0.0294 0.9969 0.0723
vn 0.0948 0.9877 0.1242
vn -0.0036 1.0000 -0.0026
vn -0.2237 0.9468 -0.2314
vn -0.0676 0.9949 -0.0743
usemtl Paper
s off
f 5/1/1 10/2/1 4/3/1 3/4/1
f 1/5/2 11/6/2 14/7/2 7/8/2
f 7/8/3 14/7/3 9/9/3 6/10/3
f 6/10/4 9/9/4 10/2/4 5/1/4
f 9/9/5 14/7/5 8/11/5
f 8/11/6 13/12/6 12/13/6 2/14/6
f 14/7/7 11/6/7 13/12/7 8/11/7
