# Blender v2.92.0 OBJ File: 'horror_01.blend'
# www.blender.org
mtllib skull.mtl
o Cube.004_Cube.017
v -0.228348 -0.137601 0.384564
v -0.250527 0.331350 0.384564
v -0.157360 0.051807 -0.444752
v -0.183116 0.206602 -0.444105
v 0.228348 -0.137601 0.384564
v 0.250527 0.331350 0.384564
v 0.164883 0.047584 -0.443943
v 0.199399 0.203739 -0.443943
v -0.248272 -0.126599 -0.083911
v -0.316334 0.446296 -0.070454
v 0.248272 -0.126599 -0.083911
v 0.316334 0.446296 -0.070454
v 0.106769 -0.360223 -0.405322
v -0.106769 -0.360223 -0.405322
v 0.106769 -0.327676 -0.214117
v -0.106769 -0.327676 -0.214117
v -0.290514 0.415496 -0.437190
v -0.223893 -0.196689 -0.455035
v 0.223759 -0.196689 -0.455035
v 0.290238 0.415496 -0.437190
v -0.088414 0.052546 -0.444752
v -0.092260 0.207111 -0.444105
v -0.236081 0.318678 -0.500957
v -0.169661 -0.065516 -0.501086
v 0.080751 0.047584 -0.443943
v 0.091552 0.203739 -0.443943
v -0.003293 0.325676 -0.500948
v 0.238091 0.318105 -0.500925
v 0.170327 -0.066361 -0.500925
v -0.003497 -0.072731 -0.501041
v -0.159439 0.168630 -0.244799
v -0.150550 0.089909 -0.245381
v -0.106683 0.090540 -0.245381
v -0.107826 0.169122 -0.244799
v 0.110196 0.164913 -0.244508
v 0.175720 0.164913 -0.244508
v 0.159083 0.084934 -0.244508
v 0.102251 0.084934 -0.244508
v -0.268762 -0.143402 0.201544
v -0.295770 0.087624 0.421311
v -0.308401 0.441345 -0.295745
v -0.349037 0.134927 -0.439102
v -0.000205 -0.285146 -0.491471
v -0.000311 0.516533 -0.437190
v 0.348983 0.134927 -0.439102
v 0.290880 -0.129381 -0.301428
v 0.313519 0.417742 0.201658
v 0.295770 0.087624 0.421311
v -0.000000 -0.204009 0.421311
v -0.000000 0.379257 0.421311
v -0.290887 -0.129381 -0.301428
v -0.313519 0.417742 0.201658
v 0.268762 -0.143402 0.201544
v 0.308366 0.441345 -0.295745
v 0.000000 0.546496 -0.070454
v 0.000000 -0.208508 -0.022881
v 0.389008 0.175344 -0.071896
v -0.389008 0.175344 -0.071896
v -0.000000 -0.368735 -0.426272
v 0.126726 -0.352235 -0.309720
v -0.126726 -0.352235 -0.309720
v -0.000000 -0.335736 -0.193167
v -0.156688 -0.263499 -0.177505
v 0.156688 -0.263499 -0.177505
v 0.154561 -0.326053 -0.433643
v -0.154580 -0.326053 -0.433643
v -0.246985 0.126557 -0.501022
v -0.071538 -0.137491 -0.501105
v 0.112118 0.390224 -0.500926
v 0.249707 0.125872 -0.500925
v -0.256685 0.372022 -0.492962
v -0.187581 -0.123590 -0.496218
v 0.187214 -0.123695 -0.496198
v 0.256262 0.371951 -0.492958
v 0.068570 -0.138358 -0.500938
v -0.114032 0.390726 -0.500932
v -0.004452 0.126678 -0.501016
v -0.185220 0.129088 -0.444428
v -0.120112 0.023174 -0.444873
v -0.140463 0.235859 -0.443984
v -0.075356 0.129946 -0.444428
v -0.209149 0.257048 -0.493899
v -0.161325 -0.001105 -0.494287
v -0.061400 -0.001869 -0.494282
v -0.072466 0.258511 -0.493898
v 0.149724 0.233018 -0.443943
v 0.200139 0.125661 -0.443943
v 0.118568 0.018304 -0.443943
v 0.068153 0.125661 -0.443943
v 0.218138 0.255330 -0.493802
v 0.068254 0.256560 -0.493805
v 0.165312 -0.003639 -0.493802
v 0.053801 -0.004743 -0.493813
v -0.160224 0.129139 -0.226360
v -0.128066 0.081538 -0.226715
v -0.134181 0.177424 -0.226005
v -0.102023 0.129823 -0.226360
v 0.144306 0.173607 -0.225778
v 0.174106 0.124855 -0.225778
v 0.129321 0.076102 -0.225778
v 0.099521 0.124855 -0.225778
v -0.099537 0.183375 -0.333880
v -0.169924 0.182796 -0.333880
v 0.100631 0.179385 -0.333674
v 0.092443 0.071123 -0.333674
v -0.155080 0.076070 -0.334607
v 0.164040 0.071123 -0.333674
v 0.188793 0.179385 -0.333674
v -0.099550 0.076893 -0.334607
v -0.375919 0.166594 -0.296584
v 0.081518 0.125247 -0.331827
v 0.401380 0.137158 0.204921
v 0.000000 0.068212 0.498430
v 0.000000 -0.249385 0.209872
v -0.000000 0.522956 0.205281
v -0.000039 0.542475 -0.295745
v -0.000000 -0.261851 -0.128572
v 0.375913 0.166593 -0.296584
v -0.401380 0.137158 0.204921
v -0.000000 -0.369624 -0.309720
v -0.000025 -0.343775 -0.478570
v 0.210770 -0.290472 -0.308229
v -0.210772 -0.290472 -0.308229
v -0.298584 0.126319 -0.493448
v -0.000798 -0.209901 -0.499717
v -0.000985 0.459806 -0.495189
v 0.298784 0.126233 -0.493436
v -0.136124 0.203120 -0.331897
v -0.208430 0.127902 -0.494093
v -0.104306 -0.049392 -0.494359
v -0.144169 0.305697 -0.493826
v -0.048044 0.128404 -0.494092
v 0.147392 0.304006 -0.493802
v 0.217216 0.125846 -0.493802
v 0.101751 -0.052292 -0.493804
v 0.039789 0.125940 -0.493813
v -0.131122 0.129336 -0.187054
v 0.136815 0.124709 -0.186472
v -0.174339 0.129294 -0.332397
v 0.191435 0.125247 -0.331827
v -0.087707 0.130259 -0.332397
v -0.125921 0.056433 -0.332897
v 0.125145 0.050763 -0.331827
v 0.147808 0.199731 -0.331827
vt 0.375000 0.132688
vt 0.500868 0.146556
vt 0.504102 0.203301
vt 0.412241 0.204357
vt 0.625000 0.147817
vt 0.625000 0.206504
vt 0.625000 0.276538
vt 0.503386 0.249687
vt 0.408664 0.273396
vt 0.456786 0.400565
vt 0.500000 0.396373
vt 0.500000 0.400312
vt 0.460694 0.403549
vt 0.543214 0.400484
vt 0.539306 0.403224
vt 0.530556 0.405785
vt 0.500000 0.404095
vt 0.469444 0.405087
vt 0.375000 0.598989
vt 0.500868 0.601841
vt 0.500000 0.674725
vt 0.371528 0.675574
vt 0.625000 0.602183
vt 0.628472 0.675601
vt 0.666667 0.791667
vt 0.500000 0.769552
vt 0.333333 0.791667
vt 0.500000 0.877997
vt 0.369792 0.880208
vt 0.630208 0.880208
vt 0.625000 1.000000
vt 0.500000 1.000000
vt 0.375000 1.000000
vt 0.125000 0.617312
vt 0.249132 0.615394
vt 0.249132 0.674172
vt 0.125000 0.673705
vt 0.244792 0.755208
vt 0.125000 0.750000
vt 0.750000 0.602183
vt 0.750868 0.672682
vt 0.875000 0.602183
vt 0.875000 0.671814
vt 0.875000 0.750000
vt 0.755208 0.755208
vt 0.666667 0.458333
vt 0.755208 0.494792
vt 0.750868 0.545946
vt 0.628472 0.543484
vt 0.875000 0.500000
vt 0.875000 0.546814
vt 0.244985 0.590294
vt 0.334105 0.576772
vt 0.125000 0.592201
vt 0.125000 0.575646
vt 0.242091 0.574350
vt 0.312500 0.568081
vt 0.408664 0.476550
vt 0.506859 0.499040
vt 0.504970 0.545983
vt 0.411372 0.543722
vt 0.375000 0.000000
vt 0.500000 0.000000
vt 0.500000 0.077871
vt 0.375000 0.076295
vt 0.625000 0.000000
vt 0.625000 0.078186
vt 0.125000 0.500000
vt 0.244792 0.494792
vt 0.244117 0.542383
vt 0.125000 0.543496
vt 0.333333 0.458333
vt 0.329765 0.538491
vt 0.388249 0.374917
vt 0.376085 0.374675
vt 0.378560 0.276106
vt 0.374220 0.472625
vt 0.369792 0.373109
vt 0.375000 0.276538
vt 0.369746 0.540193
vt 0.379102 0.207270
vt 0.375000 0.155908
vt 0.375000 0.207930
vt 0.375000 0.159225
vt 0.552960 0.310566
vt 0.499823 0.299905
vt 0.500607 0.281009
vt 0.571676 0.303371
vt 0.446698 0.316196
vt 0.430974 0.305834
vt 0.426413 0.348994
vt 0.407051 0.374630
vt 0.441755 0.373971
vt 0.421378 0.399334
vt 0.442732 0.432572
vt 0.430478 0.443829
vt 0.557269 0.439155
vt 0.578602 0.404084
vt 0.594954 0.374486
vt 0.575686 0.445171
vt 0.558049 0.373959
vt 0.573287 0.344904
vt 0.630208 0.373109
vt 0.500000 0.449546
vt 0.501498 0.468564
vt 0.521674 0.323115
vt 0.530187 0.335254
vt 0.521176 0.335732
vt 0.515063 0.326278
vt 0.521814 0.348235
vt 0.515222 0.345789
vt 0.511070 0.343442
vt 0.513616 0.336114
vt 0.510935 0.329047
vt 0.499113 0.320849
vt 0.499468 0.312833
vt 0.535756 0.316981
vt 0.476616 0.327283
vt 0.463218 0.322573
vt 0.468275 0.338340
vt 0.449589 0.340312
vt 0.476820 0.348556
vt 0.462766 0.355661
vt 0.549490 0.335747
vt 0.536422 0.354616
vt 0.499349 0.352745
vt 0.499612 0.360779
vt 0.499878 0.373868
vt 0.543214 0.427071
vt 0.559420 0.414596
vt 0.566930 0.413560
vt 0.548680 0.432932
vt 0.548860 0.393577
vt 0.456786 0.418258
vt 0.500000 0.426816
vt 0.500000 0.435715
vt 0.451320 0.424539
vt 0.440580 0.408593
vt 0.433066 0.407206
vt 0.451121 0.392732
vt 0.499986 0.387484
vt 0.487065 0.331116
vt 0.498983 0.328600
vt 0.499077 0.336842
vt 0.484539 0.337570
vt 0.499172 0.345083
vt 0.487239 0.343761
vt 0.500000 0.411556
vt 0.462748 0.409672
vt 0.537252 0.413440
vt 0.530556 0.420418
vt 0.500000 0.419018
vt 0.469444 0.414934
vt 0.498964 0.324520
vt 0.482937 0.329493
vt 0.500000 0.422809
vt 0.539306 0.423874
vt 0.460694 0.415598
vt 0.499229 0.349152
vt 0.483164 0.345784
vt 0.477017 0.337941
vt 0.445913 0.408826
vt 0.554087 0.414296
vn -0.9325 -0.3541 0.0715
vn -0.9671 0.2487 -0.0528
vn -0.9563 0.2180 -0.1949
vn -0.9323 -0.3058 -0.1933
vn 0.9761 0.1755 -0.1282
vn 0.9435 -0.3052 -0.1292
vn 0.9314 -0.3287 -0.1566
vn 0.9731 0.1742 -0.1506
vn 0.9022 -0.4209 -0.0939
vn 0.9600 0.2795 0.0173
vn 0.8578 0.2520 0.4480
vn 0.8842 -0.3721 0.2825
vn 0.2442 -0.2477 0.9375
vn 0.2100 0.2130 0.9542
vn -0.2100 0.2130 0.9542
vn -0.2442 -0.2477 0.9375
vn -0.3253 -0.9383 -0.1173
vn 0.3253 -0.9383 -0.1173
vn 0.3362 -0.9290 0.1550
vn -0.3362 -0.9290 0.1550
vn 0.3092 0.9466 0.0916
vn -0.3092 0.9466 0.0916
vn -0.2589 0.8185 0.5129
vn 0.2589 0.8185 0.5129
vn 0.3139 0.9301 -0.1907
vn -0.3142 0.9302 -0.1899
vn -0.3067 0.9515 -0.0243
vn 0.3066 0.9515 -0.0244
vn 0.3070 -0.7549 0.5796
vn -0.3070 -0.7549 0.5796
vn -0.2140 -0.6267 0.7493
vn 0.2140 -0.6267 0.7493
vn 0.9321 -0.3059 -0.1938
vn 0.9560 0.2184 -0.1959
vn 0.9671 0.2487 -0.0528
vn 0.9325 -0.3541 0.0715
vn -0.8842 -0.3721 0.2825
vn -0.8578 0.2520 0.4480
vn -0.9600 0.2795 0.0173
vn -0.9022 -0.4209 -0.0939
vn -0.1082 -0.9939 0.0231
vn 0.1082 -0.9939 0.0231
vn 0.1285 -0.9529 0.2746
vn -0.1285 -0.9529 0.2746
vn -0.2743 -0.2698 -0.9230
vn 0.2739 -0.2690 -0.9234
vn 0.2093 -0.8435 -0.4946
vn -0.2093 -0.8436 -0.4945
vn 0.8643 -0.4551 -0.2142
vn 0.7934 -0.5471 0.2670
vn 0.5839 -0.7291 0.3570
vn 0.5825 -0.8118 -0.0407
vn -0.7933 -0.5471 0.2670
vn -0.8643 -0.4554 -0.2137
vn -0.5824 -0.8119 -0.0406
vn -0.5839 -0.7291 0.3570
vn -0.1934 0.0246 -0.9808
vn -0.1344 -0.0509 -0.9896
vn -0.6356 -0.2344 -0.7356
vn -0.7510 0.1462 -0.6439
vn -0.0501 -0.0681 -0.9964
vn 0.0011 -0.0096 -1.0000
vn 0.0479 -0.0655 -0.9967
vn 0.2031 -0.2634 -0.9430
vn -0.2044 -0.2648 -0.9424
vn 0.0755 0.1672 -0.9830
vn 0.0001 0.0429 -0.9991
vn -0.0770 0.1684 -0.9827
vn -0.2421 0.6920 -0.6801
vn 0.2409 0.6905 -0.6820
vn 0.1373 -0.0531 -0.9891
vn 0.2038 0.0263 -0.9787
vn 0.7508 0.1474 -0.6439
vn 0.6354 -0.2351 -0.7355
vn 0.5319 -0.8097 -0.2479
vn -0.4883 -0.8442 -0.2209
vn -0.4519 -0.8709 -0.1932
vn 0.4898 -0.8475 -0.2045
vn 0.8952 -0.0049 -0.4456
vn 0.8586 0.3130 -0.4059
vn 0.1852 0.0725 -0.9800
vn 0.2039 -0.0057 -0.9790
vn 0.4674 0.5744 -0.6720
vn -0.4574 0.4458 -0.7695
vn -0.0536 0.0542 -0.9971
vn 0.0773 0.1005 -0.9919
vn -0.3583 -0.5639 -0.7440
vn 0.3852 -0.5303 -0.7552
vn 0.0633 -0.0973 -0.9932
vn -0.0410 -0.0659 -0.9970
vn -0.8448 0.1087 -0.5240
vn -0.8552 -0.1693 -0.4899
vn -0.1186 -0.0076 -0.9929
vn -0.1297 0.0055 -0.9915
vn -0.3617 -0.5587 -0.7463
vn 0.3109 -0.5563 -0.7706
vn 0.0379 -0.0655 -0.9971
vn -0.0622 -0.1013 -0.9929
vn -0.8675 0.3643 -0.3387
vn -0.9413 0.0008 -0.3377
vn -0.2527 -0.0084 -0.9675
vn -0.2194 0.0895 -0.9715
vn 0.4249 0.4743 -0.7710
vn -0.4297 0.6059 -0.6695
vn -0.0803 0.1101 -0.9907
vn 0.0570 0.0594 -0.9966
vn 0.8207 -0.2039 -0.5337
vn 0.8445 0.1076 -0.5245
vn 0.1366 0.0063 -0.9906
vn 0.1168 -0.0103 -0.9931
vn 0.6910 0.4709 -0.5485
vn 0.7050 -0.3758 -0.6014
vn -0.6750 -0.4516 -0.5835
vn -0.7240 0.3946 -0.5658
vn 0.6451 0.3943 -0.6545
vn 0.5733 -0.5266 -0.6277
vn -0.6238 -0.3813 -0.6823
vn -0.5902 0.5422 -0.5980
vn 0.9359 0.3397 -0.0929
vn 0.9923 -0.0504 -0.1128
vn 0.9879 -0.0832 -0.1307
vn 0.9407 0.3202 -0.1123
vn -0.9956 -0.0267 -0.0894
vn -0.9001 0.4277 -0.0831
vn -0.8925 0.4314 -0.1315
vn -0.9866 -0.0451 -0.1571
vn -0.9706 -0.2150 -0.1084
vn -0.9743 0.1879 -0.1239
vn -0.9722 0.2008 -0.1204
vn -0.9687 -0.2125 -0.1282
vn -0.6361 0.7337 -0.2388
vn 0.5797 0.7910 -0.1956
vn 0.5214 0.8356 -0.1729
vn -0.5721 0.7989 -0.1856
vn -0.4964 0.8447 -0.1999
vn 0.5623 0.7898 -0.2451
vn 0.4856 0.8497 -0.2052
vn -0.4300 0.8849 -0.1792
vn 0.4171 -0.8764 -0.2406
vn -0.4692 -0.8481 -0.2462
vn -0.4162 -0.8825 -0.2189
vn 0.3741 -0.9056 -0.1999
usemtl None
s off
f 9/1/1 58/2/1 110/3/1 51/4/1
f 58/2/2 10/5/2 41/6/2 110/3/2
f 110/3/3 41/6/3 17/7/3 42/8/3
f 51/4/4 110/3/4 42/8/4 18/9/4
f 25/10/5 89/11/5 111/12/5 105/13/5
f 89/11/6 26/14/6 104/15/6 111/12/6
f 111/12/7 104/15/7 35/16/7 101/17/7
f 105/13/8 111/12/8 101/17/8 38/18/8
f 11/19/9 57/20/9 112/21/9 53/22/9
f 57/20/10 12/23/10 47/24/10 112/21/10
f 112/21/11 47/24/11 6/25/11 48/26/11
f 53/22/12 112/21/12 48/26/12 5/27/12
f 5/27/13 48/26/13 113/28/13 49/29/13
f 48/26/14 6/25/14 50/30/14 113/28/14
f 113/28/15 50/30/15 2/31/15 40/32/15
f 49/29/16 113/28/16 40/32/16 1/33/16
f 9/34/17 56/35/17 114/36/17 39/37/17
f 56/35/18 11/19/18 53/22/18 114/36/18
f 114/36/19 53/22/19 5/27/19 49/38/19
f 39/37/20 114/36/20 49/38/20 1/39/20
f 12/23/21 55/40/21 115/41/21 47/24/21
f 55/40/22 10/42/22 52/43/22 115/41/22
f 115/41/23 52/43/23 2/44/23 50/45/23
f 47/24/24 115/41/24 50/45/24 6/25/24
f 20/46/25 44/47/25 116/48/25 54/49/25
f 44/47/26 17/50/26 41/51/26 116/48/26
f 116/48/27 41/51/27 10/42/27 55/40/27
f 54/49/28 116/48/28 55/40/28 12/23/28
f 11/19/29 56/35/29 117/52/29 64/53/29
f 56/35/30 9/34/30 63/54/30 117/52/30
f 117/52/31 63/54/31 16/55/31 62/56/31
f 64/53/32 117/52/32 62/56/32 15/57/32
f 19/58/33 45/59/33 118/60/33 46/61/33
f 45/59/34 20/46/34 54/49/34 118/60/34
f 118/60/35 54/49/35 12/23/35 57/20/35
f 46/61/36 118/60/36 57/20/36 11/19/36
f 1/62/37 40/63/37 119/64/37 39/65/37
f 40/63/38 2/66/38 52/67/38 119/64/38
f 119/64/39 52/67/39 10/5/39 58/2/39
f 39/65/40 119/64/40 58/2/40 9/1/40
f 14/68/41 59/69/41 120/70/41 61/71/41
f 59/69/42 13/72/42 60/73/42 120/70/42
f 120/70/43 60/73/43 15/57/43 62/56/43
f 61/71/44 120/70/44 62/56/44 16/55/44
f 18/9/45 43/74/45 121/75/45 66/76/45
f 43/74/46 19/58/46 65/77/46 121/75/46
f 121/75/47 65/77/47 13/72/47 59/78/47
f 66/76/48 121/75/48 59/78/48 14/79/48
f 19/58/49 46/61/49 122/80/49 65/77/49
f 46/61/50 11/19/50 64/53/50 122/80/50
f 122/80/51 64/53/51 15/57/51 60/73/51
f 65/77/52 122/80/52 60/73/52 13/72/52
f 9/1/53 51/4/53 123/81/53 63/82/53
f 51/4/54 18/9/54 66/76/54 123/81/54
f 123/81/55 66/76/55 14/79/55 61/83/55
f 63/82/56 123/81/56 61/83/56 16/84/56
f 23/85/57 67/86/57 124/87/57 71/88/57
f 67/86/58 24/89/58 72/90/58 124/87/58
f 124/87/59 72/90/59 18/9/59 42/8/59
f 71/88/60 124/87/60 42/8/60 17/7/60
f 24/89/61 68/91/61 125/92/61 72/90/61
f 30/93/62 75/94/62 125/92/62 68/91/62
f 29/95/63 73/96/63 125/92/63 75/94/63
f 19/58/64 43/74/64 125/92/64 73/96/64
f 18/9/65 72/90/65 125/92/65 43/74/65
f 28/97/66 69/98/66 126/99/66 74/100/66
f 27/101/67 76/102/67 126/99/67 69/98/67
f 23/85/68 71/88/68 126/99/68 76/102/68
f 17/7/69 44/103/69 126/99/69 71/88/69
f 20/46/70 74/100/70 126/99/70 44/103/70
f 29/95/71 70/104/71 127/105/71 73/96/71
f 70/104/72 28/97/72 74/100/72 127/105/72
f 127/105/73 74/100/73 20/46/73 45/59/73
f 73/96/74 127/105/74 45/59/74 19/58/74
f 4/106/75 80/107/75 128/108/75 103/109/75
f 80/107/76 22/110/76 102/111/76 128/108/76
f 128/108/77 102/111/77 34/112/77 96/113/77
f 103/109/78 128/108/78 96/113/78 31/114/78
f 4/106/79 78/115/79 129/116/79 82/117/79
f 78/115/80 3/118/80 83/119/80 129/116/80
f 129/116/81 83/119/81 24/89/81 67/86/81
f 82/117/82 129/116/82 67/86/82 23/85/82
f 3/118/83 79/120/83 130/121/83 83/119/83
f 79/120/84 21/122/84 84/123/84 130/121/84
f 130/121/85 84/123/85 30/93/85 68/91/85
f 83/119/86 130/121/86 68/91/86 24/89/86
f 22/110/87 80/107/87 131/124/87 85/125/87
f 80/107/88 4/106/88 82/117/88 131/124/88
f 131/124/89 82/117/89 23/85/89 76/102/89
f 85/125/90 131/124/90 76/102/90 27/101/90
f 21/122/91 81/126/91 132/127/91 84/123/91
f 81/126/92 22/110/92 85/125/92 132/127/92
f 132/127/93 85/125/93 27/101/93 77/128/93
f 84/123/94 132/127/94 77/128/94 30/93/94
f 8/129/95 86/130/95 133/131/95 90/132/95
f 86/130/96 26/14/96 91/133/96 133/131/96
f 133/131/97 91/133/97 27/101/97 69/98/97
f 90/132/98 133/131/98 69/98/98 28/97/98
f 7/134/99 87/135/99 134/136/99 92/137/99
f 87/135/100 8/129/100 90/132/100 134/136/100
f 134/136/101 90/132/101 28/97/101 70/104/101
f 92/137/102 134/136/102 70/104/102 29/95/102
f 25/10/103 88/138/103 135/139/103 93/140/103
f 88/138/104 7/134/104 92/137/104 135/139/104
f 135/139/105 92/137/105 29/95/105 75/94/105
f 93/140/106 135/139/106 75/94/106 30/93/106
f 26/14/107 89/11/107 136/141/107 91/133/107
f 89/11/108 25/10/108 93/140/108 136/141/108
f 136/141/109 93/140/109 30/93/109 77/128/109
f 91/133/110 136/141/110 77/128/110 27/101/110
f 32/142/111 94/143/111 137/144/111 95/145/111
f 94/143/112 31/114/112 96/113/112 137/144/112
f 137/144/113 96/113/113 34/112/113 97/146/113
f 95/145/114 137/144/114 97/146/114 33/147/114
f 38/18/115 101/17/115 138/148/115 100/149/115
f 101/17/116 35/16/116 98/150/116 138/148/116
f 138/148/117 98/150/117 36/151/117 99/152/117
f 100/149/118 138/148/118 99/152/118 37/153/118
f 3/118/119 78/115/119 139/154/119 106/155/119
f 78/115/120 4/106/120 103/109/120 139/154/120
f 139/154/121 103/109/121 31/114/121 94/143/121
f 106/155/122 139/154/122 94/143/122 32/142/122
f 8/129/123 87/135/123 140/156/123 108/157/123
f 87/135/124 7/134/124 107/158/124 140/156/124
f 140/156/125 107/158/125 37/153/125 99/152/125
f 108/157/126 140/156/126 99/152/126 36/151/126
f 22/110/127 81/126/127 141/159/127 102/111/127
f 81/126/128 21/122/128 109/160/128 141/159/128
f 141/159/129 109/160/129 33/147/129 97/146/129
f 102/111/130 141/159/130 97/146/130 34/112/130
f 21/122/131 79/120/131 142/161/131 109/160/131
f 79/120/132 3/118/132 106/155/132 142/161/132
f 142/161/133 106/155/133 32/142/133 95/145/133
f 109/160/134 142/161/134 95/145/134 33/147/134
f 7/134/135 88/138/135 143/162/135 107/158/135
f 88/138/136 25/10/136 105/13/136 143/162/136
f 143/162/137 105/13/137 38/18/137 100/149/137
f 107/158/138 143/162/138 100/149/138 37/153/138
f 26/14/139 86/130/139 144/163/139 104/15/139
f 86/130/140 8/129/140 108/157/140 144/163/140
f 144/163/141 108/157/141 36/151/141 98/150/141
f 104/15/142 144/163/142 98/150/142 35/16/142
